<?xml version="1.0" encoding="UTF-8"?>
<svg xmlns="http://www.w3.org/2000/svg" style="display:none" aria-hidden="true">
  <symbol id="1-circle" viewBox="0 0 16 16"><path d="M1 8a7 7 0 1 0 14 0A7 7 0 0 0 1 8Zm15 0A8 8 0 1 1 0 8a8 8 0 0 1 16 0ZM9.283 4.002V12H7.971V5.338h-.065L6.072 6.656V5.385l1.899-1.383h1.312Z"/></symbol>
  <symbol id="2-circle" viewBox="0 0 16 16"><path d="M1 8a7 7 0 1 0 14 0A7 7 0 0 0 1 8Zm15 0A8 8 0 1 1 0 8a8 8 0 0 1 16 0ZM6.646 6.24v.07H5.375v-.064c0-1.213.879-2.402 2.637-2.402 1.582 0 2.613.949 2.613 2.215 0 1.002-.6 1.667-1.287 2.43l-.096.107-1.974 2.22v.077h3.498V12H5.422v-.832l2.97-3.293c.434-.475.903-1.008.903-1.705 0-.744-.557-1.236-1.313-1.236-.843 0-1.336.615-1.336 1.306Z"/></symbol>
  <symbol id="3-circle" viewBox="0 0 16 16"><path d="M7.918 8.414h-.879V7.342h.838c.78 0 1.348-.522 1.342-1.237 0-.709-.563-1.195-1.348-1.195-.79 0-1.312.498-1.348 1.055H5.275c.036-1.137.95-2.115 2.625-2.121 1.594-.012 2.608.885 2.637 2.062.023 1.137-.885 1.776-1.482 1.875v.07c.703.07 1.71.64 1.734 1.917.024 1.459-1.277 2.396-2.93 2.396-1.705 0-2.707-.967-2.754-2.144H6.33c.059.597.68 1.06 1.541 1.066.973.006 1.6-.563 1.588-1.354-.006-.779-.621-1.318-1.541-1.318Z"/>
  <path d="M16 8A8 8 0 1 1 0 8a8 8 0 0 1 16 0ZM1 8a7 7 0 1 0 14 0A7 7 0 0 0 1 8Z"/></symbol>
  <symbol id="airplane" viewBox="0 0 16 16"><path d="M6.428 1.151C6.708.591 7.213 0 8 0s1.292.592 1.572 1.151C9.861 1.73 10 2.431 10 3v3.691l5.17 2.585a1.5 1.5 0 0 1 .83 1.342V12a.5.5 0 0 1-.582.493l-5.507-.918-.375 2.253 1.318 1.318A.5.5 0 0 1 10.5 16h-5a.5.5 0 0 1-.354-.854l1.319-1.318-.376-2.253-5.507.918A.5.5 0 0 1 0 12v-1.382a1.5 1.5 0 0 1 .83-1.342L6 6.691V3c0-.568.14-1.271.428-1.849Zm.894.448C7.111 2.02 7 2.569 7 3v4a.5.5 0 0 1-.276.447l-5.448 2.724a.5.5 0 0 0-.276.447v.792l5.418-.903a.5.5 0 0 1 .575.41l.5 3a.5.5 0 0 1-.14.437L6.708 15h2.586l-.647-.646a.5.5 0 0 1-.14-.436l.5-3a.5.5 0 0 1 .576-.411L15 11.41v-.792a.5.5 0 0 0-.276-.447L9.276 7.447A.5.5 0 0 1 9 7V3c0-.432-.11-.979-.322-1.401C8.458 1.159 8.213 1 8 1c-.213 0-.458.158-.678.599Z"/></symbol>
  <symbol id="airplane-engines" viewBox="0 0 16 16"><path d="M8 0c-.787 0-1.292.592-1.572 1.151A4.347 4.347 0 0 0 6 3v3.691l-2 1V7.5a.5.5 0 0 0-.5-.5h-1a.5.5 0 0 0-.5.5v1.191l-1.17.585A1.5 1.5 0 0 0 0 10.618V12a.5.5 0 0 0 .582.493l1.631-.272.313.937a.5.5 0 0 0 .948 0l.405-1.214 2.21-.369.375 2.253-1.318 1.318A.5.5 0 0 0 5.5 16h5a.5.5 0 0 0 .354-.854l-1.318-1.318.375-2.253 2.21.369.405 1.214a.5.5 0 0 0 .948 0l.313-.937 1.63.272A.5.5 0 0 0 16 12v-1.382a1.5 1.5 0 0 0-.83-1.342L14 8.691V7.5a.5.5 0 0 0-.5-.5h-1a.5.5 0 0 0-.5.5v.191l-2-1V3c0-.568-.14-1.271-.428-1.849C9.292.591 8.787 0 8 0ZM7 3c0-.432.11-.979.322-1.401C7.542 1.159 7.787 1 8 1c.213 0 .458.158.678.599C8.889 2.02 9 2.569 9 3v4a.5.5 0 0 0 .276.447l5.448 2.724a.5.5 0 0 1 .276.447v.792l-5.418-.903a.5.5 0 0 0-.575.41l-.5 3a.5.5 0 0 0 .14.437l.646.646H6.707l.647-.646a.5.5 0 0 0 .14-.436l-.5-3a.5.5 0 0 0-.576-.411L1 11.41v-.792a.5.5 0 0 1 .276-.447l5.448-2.724A.5.5 0 0 0 7 7V3Z"/></symbol>
  <symbol id="arrow-clockwise" viewBox="0 0 16 16"><path fill-rule="evenodd" d="M8 3a5 5 0 1 0 4.546 2.914.5.5 0 0 1 .908-.417A6 6 0 1 1 8 2v1z"/>
  <path d="M8 4.466V.534a.25.25 0 0 1 .41-.192l2.36 1.966c.12.1.12.284 0 .384L8.41 4.658A.25.25 0 0 1 8 4.466z"/></symbol>
  <symbol id="arrow-counterclockwise" viewBox="0 0 16 16"><path fill-rule="evenodd" d="M8 3a5 5 0 1 1-4.546 2.914.5.5 0 0 0-.908-.417A6 6 0 1 0 8 2v1z"/>
  <path d="M8 4.466V.534a.25.25 0 0 0-.41-.192L5.23 2.308a.25.25 0 0 0 0 .384l2.36 1.966A.25.25 0 0 0 8 4.466z"/></symbol>
  <symbol id="arrow-left" viewBox="0 0 16 16"><path fill-rule="evenodd" d="M15 8a.5.5 0 0 0-.5-.5H2.707l3.147-3.146a.5.5 0 1 0-.708-.708l-4 4a.5.5 0 0 0 0 .708l4 4a.5.5 0 0 0 .708-.708L2.707 8.5H14.5A.5.5 0 0 0 15 8z"/></symbol>
  <symbol id="arrow-left-right" viewBox="0 0 16 16"><path fill-rule="evenodd" d="M1 11.5a.5.5 0 0 0 .5.5h11.793l-3.147 3.146a.5.5 0 0 0 .708.708l4-4a.5.5 0 0 0 0-.708l-4-4a.5.5 0 0 0-.708.708L13.293 11H1.5a.5.5 0 0 0-.5.5zm14-7a.5.5 0 0 1-.5.5H2.707l3.147 3.146a.5.5 0 1 1-.708.708l-4-4a.5.5 0 0 1 0-.708l4-4a.5.5 0 1 1 .708.708L2.707 4H14.5a.5.5 0 0 1 .5.5z"/></symbol>
  <symbol id="arrow-repeat" viewBox="0 0 16 16"><path d="M11.534 7h3.932a.25.25 0 0 1 .192.41l-1.966 2.36a.25.25 0 0 1-.384 0l-1.966-2.36a.25.25 0 0 1 .192-.41zm-11 2h3.932a.25.25 0 0 0 .192-.41L2.692 6.23a.25.25 0 0 0-.384 0L.342 8.59A.25.25 0 0 0 .534 9z"/>
  <path fill-rule="evenodd" d="M8 3c-1.552 0-2.94.707-3.857 1.818a.5.5 0 1 1-.771-.636A6.002 6.002 0 0 1 13.917 7H12.9A5.002 5.002 0 0 0 8 3zM3.1 9a5.002 5.002 0 0 0 8.757 2.182.5.5 0 1 1 .771.636A6.002 6.002 0 0 1 2.083 9H3.1z"/></symbol>
  <symbol id="arrow-right-circle" viewBox="0 0 16 16"><path fill-rule="evenodd" d="M1 8a7 7 0 1 0 14 0A7 7 0 0 0 1 8zm15 0A8 8 0 1 1 0 8a8 8 0 0 1 16 0zM4.5 7.5a.5.5 0 0 0 0 1h5.793l-2.147 2.146a.5.5 0 0 0 .708.708l3-3a.5.5 0 0 0 0-.708l-3-3a.5.5 0 1 0-.708.708L10.293 7.5H4.5z"/></symbol>
  <symbol id="arrow-up" viewBox="0 0 16 16"><path fill-rule="evenodd" d="M8 15a.5.5 0 0 0 .5-.5V2.707l3.146 3.147a.5.5 0 0 0 .708-.708l-4-4a.5.5 0 0 0-.708 0l-4 4a.5.5 0 1 0 .708.708L7.5 2.707V14.5a.5.5 0 0 0 .5.5z"/></symbol>
  <symbol id="bag" viewBox="0 0 16 16"><path d="M8 1a2.5 2.5 0 0 1 2.5 2.5V4h-5v-.5A2.5 2.5 0 0 1 8 1zm3.5 3v-.5a3.5 3.5 0 1 0-7 0V4H1v10a2 2 0 0 0 2 2h10a2 2 0 0 0 2-2V4h-3.5zM2 5h12v9a1 1 0 0 1-1 1H3a1 1 0 0 1-1-1V5z"/></symbol>
  <symbol id="bag-check" viewBox="0 0 16 16"><path fill-rule="evenodd" d="M10.854 8.146a.5.5 0 0 1 0 .708l-3 3a.5.5 0 0 1-.708 0l-1.5-1.5a.5.5 0 0 1 .708-.708L7.5 10.793l2.646-2.647a.5.5 0 0 1 .708 0z"/>
  <path d="M8 1a2.5 2.5 0 0 1 2.5 2.5V4h-5v-.5A2.5 2.5 0 0 1 8 1zm3.5 3v-.5a3.5 3.5 0 1 0-7 0V4H1v10a2 2 0 0 0 2 2h10a2 2 0 0 0 2-2V4h-3.5zM2 5h12v9a1 1 0 0 1-1 1H3a1 1 0 0 1-1-1V5z"/></symbol>
  <symbol id="basket" viewBox="0 0 16 16"><path d="M5.757 1.071a.5.5 0 0 1 .172.686L3.383 6h9.234L10.07 1.757a.5.5 0 1 1 .858-.514L13.783 6H15a1 1 0 0 1 1 1v1a1 1 0 0 1-1 1v4.5a2.5 2.5 0 0 1-2.5 2.5h-9A2.5 2.5 0 0 1 1 13.5V9a1 1 0 0 1-1-1V7a1 1 0 0 1 1-1h1.217L5.07 1.243a.5.5 0 0 1 .686-.172zM2 9v4.5A1.5 1.5 0 0 0 3.5 15h9a1.5 1.5 0 0 0 1.5-1.5V9H2zM1 7v1h14V7H1zm3 3a.5.5 0 0 1 .5.5v3a.5.5 0 0 1-1 0v-3A.5.5 0 0 1 4 10zm2 0a.5.5 0 0 1 .5.5v3a.5.5 0 0 1-1 0v-3A.5.5 0 0 1 6 10zm2 0a.5.5 0 0 1 .5.5v3a.5.5 0 0 1-1 0v-3A.5.5 0 0 1 8 10zm2 0a.5.5 0 0 1 .5.5v3a.5.5 0 0 1-1 0v-3a.5.5 0 0 1 .5-.5zm2 0a.5.5 0 0 1 .5.5v3a.5.5 0 0 1-1 0v-3a.5.5 0 0 1 .5-.5z"/></symbol>
  <symbol id="book" viewBox="0 0 16 16"><path d="M1 2.828c.885-.37 2.154-.769 3.388-.893 1.33-.134 2.458.063 3.112.752v9.746c-.935-.53-2.12-.603-3.213-.493-1.18.12-2.37.461-3.287.811V2.828zm7.5-.141c.654-.689 1.782-.886 3.112-.752 1.234.124 2.503.523 3.388.893v9.923c-.918-.35-2.107-.692-3.287-.81-1.094-.111-2.278-.039-3.213.492V2.687zM8 1.783C7.015.936 5.587.81 4.287.94c-1.514.153-3.042.672-3.994 1.105A.5.5 0 0 0 0 2.5v11a.5.5 0 0 0 .707.455c.882-.4 2.303-.881 3.68-1.02 1.409-.142 2.59.087 3.223.877a.5.5 0 0 0 .78 0c.633-.79 1.814-1.019 3.222-.877 1.378.139 2.8.62 3.681 1.02A.5.5 0 0 0 16 13.5v-11a.5.5 0 0 0-.293-.455c-.952-.433-2.48-.952-3.994-1.105C10.413.809 8.985.936 8 1.783z"/></symbol>
  <symbol id="book-half" viewBox="0 0 16 16"><path d="M8.5 2.687c.654-.689 1.782-.886 3.112-.752 1.234.124 2.503.523 3.388.893v9.923c-.918-.35-2.107-.692-3.287-.81-1.094-.111-2.278-.039-3.213.492V2.687zM8 1.783C7.015.936 5.587.81 4.287.94c-1.514.153-3.042.672-3.994 1.105A.5.5 0 0 0 0 2.5v11a.5.5 0 0 0 .707.455c.882-.4 2.303-.881 3.68-1.02 1.409-.142 2.59.087 3.223.877a.5.5 0 0 0 .78 0c.633-.79 1.814-1.019 3.222-.877 1.378.139 2.8.62 3.681 1.02A.5.5 0 0 0 16 13.5v-11a.5.5 0 0 0-.293-.455c-.952-.433-2.48-.952-3.994-1.105C10.413.809 8.985.936 8 1.783z"/></symbol>
  <symbol id="box" viewBox="0 0 16 16"><path d="M8.186 1.113a.5.5 0 0 0-.372 0L1.846 3.5 8 5.961 14.154 3.5 8.186 1.113zM15 4.239l-6.5 2.6v7.922l6.5-2.6V4.24zM7.5 14.762V6.838L1 4.239v7.923l6.5 2.6zM7.443.184a1.5 1.5 0 0 1 1.114 0l7.129 2.852A.5.5 0 0 1 16 3.5v8.662a1 1 0 0 1-.629.928l-7.185 2.874a.5.5 0 0 1-.372 0L.63 13.09a1 1 0 0 1-.63-.928V3.5a.5.5 0 0 1 .314-.464L7.443.184z"/></symbol>
  <symbol id="building" viewBox="0 0 16 16"><path d="M4 2.5a.5.5 0 0 1 .5-.5h1a.5.5 0 0 1 .5.5v1a.5.5 0 0 1-.5.5h-1a.5.5 0 0 1-.5-.5v-1Zm3 0a.5.5 0 0 1 .5-.5h1a.5.5 0 0 1 .5.5v1a.5.5 0 0 1-.5.5h-1a.5.5 0 0 1-.5-.5v-1Zm3.5-.5a.5.5 0 0 0-.5.5v1a.5.5 0 0 0 .5.5h1a.5.5 0 0 0 .5-.5v-1a.5.5 0 0 0-.5-.5h-1ZM4 5.5a.5.5 0 0 1 .5-.5h1a.5.5 0 0 1 .5.5v1a.5.5 0 0 1-.5.5h-1a.5.5 0 0 1-.5-.5v-1ZM7.5 5a.5.5 0 0 0-.5.5v1a.5.5 0 0 0 .5.5h1a.5.5 0 0 0 .5-.5v-1a.5.5 0 0 0-.5-.5h-1Zm2.5.5a.5.5 0 0 1 .5-.5h1a.5.5 0 0 1 .5.5v1a.5.5 0 0 1-.5.5h-1a.5.5 0 0 1-.5-.5v-1ZM4.5 8a.5.5 0 0 0-.5.5v1a.5.5 0 0 0 .5.5h1a.5.5 0 0 0 .5-.5v-1a.5.5 0 0 0-.5-.5h-1Zm2.5.5a.5.5 0 0 1 .5-.5h1a.5.5 0 0 1 .5.5v1a.5.5 0 0 1-.5.5h-1a.5.5 0 0 1-.5-.5v-1Zm3.5-.5a.5.5 0 0 0-.5.5v1a.5.5 0 0 0 .5.5h1a.5.5 0 0 0 .5-.5v-1a.5.5 0 0 0-.5-.5h-1Z"/>
  <path d="M2 1a1 1 0 0 1 1-1h10a1 1 0 0 1 1 1v14a1 1 0 0 1-1 1H3a1 1 0 0 1-1-1V1Zm11 0H3v14h3v-2.5a.5.5 0 0 1 .5-.5h3a.5.5 0 0 1 .5.5V15h3V1Z"/></symbol>
  <symbol id="bus-front" viewBox="0 0 16 16"><path d="M5 11a1 1 0 1 1-2 0 1 1 0 0 1 2 0Zm8 0a1 1 0 1 1-2 0 1 1 0 0 1 2 0Zm-6-1a1 1 0 1 0 0 2h2a1 1 0 1 0 0-2H7Zm1-6c-1.876 0-3.426.109-4.552.226A.5.5 0 0 0 3 4.723v3.554a.5.5 0 0 0 .448.497C4.574 8.891 6.124 9 8 9c1.876 0 3.426-.109 4.552-.226A.5.5 0 0 0 13 8.277V4.723a.5.5 0 0 0-.448-.497A44.303 44.303 0 0 0 8 4Zm0-1c-1.837 0-3.353.107-4.448.22a.5.5 0 1 1-.104-.994A44.304 44.304 0 0 1 8 2c1.876 0 3.426.109 4.552.226a.5.5 0 1 1-.104.994A43.306 43.306 0 0 0 8 3Z"/>
  <path d="M15 8a1 1 0 0 0 1-1V5a1 1 0 0 0-1-1V2.64c0-1.188-.845-2.232-2.064-2.372A43.61 43.61 0 0 0 8 0C5.9 0 4.208.136 3.064.268 1.845.408 1 1.452 1 2.64V4a1 1 0 0 0-1 1v2a1 1 0 0 0 1 1v3.5c0 .818.393 1.544 1 2v2a.5.5 0 0 0 .5.5h2a.5.5 0 0 0 .5-.5V14h6v1.5a.5.5 0 0 0 .5.5h2a.5.5 0 0 0 .5-.5v-2c.607-.456 1-1.182 1-2V8ZM8 1c2.056 0 3.71.134 4.822.261.676.078 1.178.66 1.178 1.379v8.86a1.5 1.5 0 0 1-1.5 1.5h-9A1.5 1.5 0 0 1 2 11.5V2.64c0-.72.502-1.301 1.178-1.379A42.611 42.611 0 0 1 8 1Z"/></symbol>
  <symbol id="calendar-check" viewBox="0 0 16 16"><path d="M10.854 7.146a.5.5 0 0 1 0 .708l-3 3a.5.5 0 0 1-.708 0l-1.5-1.5a.5.5 0 1 1 .708-.708L7.5 9.793l2.646-2.647a.5.5 0 0 1 .708 0z"/>
  <path d="M3.5 0a.5.5 0 0 1 .5.5V1h8V.5a.5.5 0 0 1 1 0V1h1a2 2 0 0 1 2 2v11a2 2 0 0 1-2 2H2a2 2 0 0 1-2-2V3a2 2 0 0 1 2-2h1V.5a.5.5 0 0 1 .5-.5zM1 4v10a1 1 0 0 0 1 1h12a1 1 0 0 0 1-1V4H1z"/></symbol>
  <symbol id="calendar-event" viewBox="0 0 16 16"><path d="M11 6.5a.5.5 0 0 1 .5-.5h1a.5.5 0 0 1 .5.5v1a.5.5 0 0 1-.5.5h-1a.5.5 0 0 1-.5-.5v-1z"/>
  <path d="M3.5 0a.5.5 0 0 1 .5.5V1h8V.5a.5.5 0 0 1 1 0V1h1a2 2 0 0 1 2 2v11a2 2 0 0 1-2 2H2a2 2 0 0 1-2-2V3a2 2 0 0 1 2-2h1V.5a.5.5 0 0 1 .5-.5zM1 4v10a1 1 0 0 0 1 1h12a1 1 0 0 0 1-1V4H1z"/></symbol>
  <symbol id="calendar-week" viewBox="0 0 16 16"><path d="M11 6.5a.5.5 0 0 1 .5-.5h1a.5.5 0 0 1 .5.5v1a.5.5 0 0 1-.5.5h-1a.5.5 0 0 1-.5-.5v-1zm-3 0a.5.5 0 0 1 .5-.5h1a.5.5 0 0 1 .5.5v1a.5.5 0 0 1-.5.5h-1a.5.5 0 0 1-.5-.5v-1zm-5 3a.5.5 0 0 1 .5-.5h1a.5.5 0 0 1 .5.5v1a.5.5 0 0 1-.5.5h-1a.5.5 0 0 1-.5-.5v-1zm3 0a.5.5 0 0 1 .5-.5h1a.5.5 0 0 1 .5.5v1a.5.5 0 0 1-.5.5h-1a.5.5 0 0 1-.5-.5v-1z"/>
  <path d="M3.5 0a.5.5 0 0 1 .5.5V1h8V.5a.5.5 0 0 1 1 0V1h1a2 2 0 0 1 2 2v11a2 2 0 0 1-2 2H2a2 2 0 0 1-2-2V3a2 2 0 0 1 2-2h1V.5a.5.5 0 0 1 .5-.5zM1 4v10a1 1 0 0 0 1 1h12a1 1 0 0 0 1-1V4H1z"/></symbol>
  <symbol id="calendar3" viewBox="0 0 16 16"><path d="M14 0H2a2 2 0 0 0-2 2v12a2 2 0 0 0 2 2h12a2 2 0 0 0 2-2V2a2 2 0 0 0-2-2zM1 3.857C1 3.384 1.448 3 2 3h12c.552 0 1 .384 1 .857v10.286c0 .473-.448.857-1 .857H2c-.552 0-1-.384-1-.857V3.857z"/>
  <path d="M6.5 7a1 1 0 1 0 0-2 1 1 0 0 0 0 2zm3 0a1 1 0 1 0 0-2 1 1 0 0 0 0 2zm3 0a1 1 0 1 0 0-2 1 1 0 0 0 0 2zm-9 3a1 1 0 1 0 0-2 1 1 0 0 0 0 2zm3 0a1 1 0 1 0 0-2 1 1 0 0 0 0 2zm3 0a1 1 0 1 0 0-2 1 1 0 0 0 0 2zm3 0a1 1 0 1 0 0-2 1 1 0 0 0 0 2zm-9 3a1 1 0 1 0 0-2 1 1 0 0 0 0 2zm3 0a1 1 0 1 0 0-2 1 1 0 0 0 0 2zm3 0a1 1 0 1 0 0-2 1 1 0 0 0 0 2z"/></symbol>
  <symbol id="camera" viewBox="0 0 16 16"><path d="M15 12a1 1 0 0 1-1 1H2a1 1 0 0 1-1-1V6a1 1 0 0 1 1-1h1.172a3 3 0 0 0 2.12-.879l.83-.828A1 1 0 0 1 6.827 3h2.344a1 1 0 0 1 .707.293l.828.828A3 3 0 0 0 12.828 5H14a1 1 0 0 1 1 1v6zM2 4a2 2 0 0 0-2 2v6a2 2 0 0 0 2 2h12a2 2 0 0 0 2-2V6a2 2 0 0 0-2-2h-1.172a2 2 0 0 1-1.414-.586l-.828-.828A2 2 0 0 0 9.172 2H6.828a2 2 0 0 0-1.414.586l-.828.828A2 2 0 0 1 3.172 4H2z"/>
  <path d="M8 11a2.5 2.5 0 1 1 0-5 2.5 2.5 0 0 1 0 5zm0 1a3.5 3.5 0 1 0 0-7 3.5 3.5 0 0 0 0 7zM3 6.5a.5.5 0 1 1-1 0 .5.5 0 0 1 1 0z"/></symbol>
  <symbol id="camera-fill" viewBox="0 0 16 16"><path d="M10.5 8.5a2.5 2.5 0 1 1-5 0 2.5 2.5 0 0 1 5 0z"/>
  <path d="M2 4a2 2 0 0 0-2 2v6a2 2 0 0 0 2 2h12a2 2 0 0 0 2-2V6a2 2 0 0 0-2-2h-1.172a2 2 0 0 1-1.414-.586l-.828-.828A2 2 0 0 0 9.172 2H6.828a2 2 0 0 0-1.414.586l-.828.828A2 2 0 0 1 3.172 4H2zm.5 2a.5.5 0 1 1 0-1 .5.5 0 0 1 0 1zm9 2.5a3.5 3.5 0 1 1-7 0 3.5 3.5 0 0 1 7 0z"/></symbol>
  <symbol id="camera-video" viewBox="0 0 16 16"><path fill-rule="evenodd" d="M0 5a2 2 0 0 1 2-2h7.5a2 2 0 0 1 1.983 1.738l3.11-1.382A1 1 0 0 1 16 4.269v7.462a1 1 0 0 1-1.406.913l-3.111-1.382A2 2 0 0 1 9.5 13H2a2 2 0 0 1-2-2V5zm11.5 5.175 3.5 1.556V4.269l-3.5 1.556v4.35zM2 4a1 1 0 0 0-1 1v6a1 1 0 0 0 1 1h7.5a1 1 0 0 0 1-1V5a1 1 0 0 0-1-1H2z"/></symbol>
  <symbol id="cash-coin" viewBox="0 0 16 16"><path fill-rule="evenodd" d="M11 15a4 4 0 1 0 0-8 4 4 0 0 0 0 8zm5-4a5 5 0 1 1-10 0 5 5 0 0 1 10 0z"/>
  <path d="M9.438 11.944c.047.596.518 1.06 1.363 1.116v.44h.375v-.443c.875-.061 1.386-.529 1.386-1.207 0-.618-.39-.936-1.09-1.1l-.296-.07v-1.2c.376.043.614.248.671.532h.658c-.047-.575-.54-1.024-1.329-1.073V8.5h-.375v.45c-.747.073-1.255.522-1.255 1.158 0 .562.378.92 1.007 1.066l.248.061v1.272c-.384-.058-.639-.27-.696-.563h-.668zm1.36-1.354c-.369-.085-.569-.26-.569-.522 0-.294.216-.514.572-.578v1.1h-.003zm.432.746c.449.104.655.272.655.569 0 .339-.257.571-.709.614v-1.195l.054.012z"/>
  <path d="M1 0a1 1 0 0 0-1 1v8a1 1 0 0 0 1 1h4.083c.058-.344.145-.678.258-1H3a2 2 0 0 0-2-2V3a2 2 0 0 0 2-2h10a2 2 0 0 0 2 2v3.528c.38.34.717.728 1 1.154V1a1 1 0 0 0-1-1H1z"/>
  <path d="M9.998 5.083 10 5a2 2 0 1 0-3.132 1.65 5.982 5.982 0 0 1 3.13-1.567z"/></symbol>
  <symbol id="cash-stack" viewBox="0 0 16 16"><path d="M1 3a1 1 0 0 1 1-1h12a1 1 0 0 1 1 1H1zm7 8a2 2 0 1 0 0-4 2 2 0 0 0 0 4z"/>
  <path d="M0 5a1 1 0 0 1 1-1h14a1 1 0 0 1 1 1v8a1 1 0 0 1-1 1H1a1 1 0 0 1-1-1V5zm3 0a2 2 0 0 1-2 2v4a2 2 0 0 1 2 2h10a2 2 0 0 1 2-2V7a2 2 0 0 1-2-2H3z"/></symbol>
  <symbol id="chat-dots" viewBox="0 0 16 16"><path d="M5 8a1 1 0 1 1-2 0 1 1 0 0 1 2 0zm4 0a1 1 0 1 1-2 0 1 1 0 0 1 2 0zm3 1a1 1 0 1 0 0-2 1 1 0 0 0 0 2z"/>
  <path d="m2.165 15.803.02-.004c1.83-.363 2.948-.842 3.468-1.105A9.06 9.06 0 0 0 8 15c4.418 0 8-3.134 8-7s-3.582-7-8-7-8 3.134-8 7c0 1.76.743 3.37 1.97 4.6a10.437 10.437 0 0 1-.524 2.318l-.003.011a10.722 10.722 0 0 1-.244.637c-.079.186.074.394.273.362a21.673 21.673 0 0 0 .693-.125zm.8-3.108a1 1 0 0 0-.287-.801C1.618 10.83 1 9.468 1 8c0-3.192 3.004-6 7-6s7 2.808 7 6c0 3.193-3.004 6-7 6a8.06 8.06 0 0 1-2.088-.272 1 1 0 0 0-.711.074c-.387.196-1.24.57-2.634.893a10.97 10.97 0 0 0 .398-2z"/></symbol>
  <symbol id="check-circle" viewBox="0 0 16 16"><path d="M8 15A7 7 0 1 1 8 1a7 7 0 0 1 0 14zm0 1A8 8 0 1 0 8 0a8 8 0 0 0 0 16z"/>
  <path d="M10.97 4.97a.235.235 0 0 0-.02.022L7.477 9.417 5.384 7.323a.75.75 0 0 0-1.06 1.06L6.97 11.03a.75.75 0 0 0 1.079-.02l3.992-4.99a.75.75 0 0 0-1.071-1.05z"/></symbol>
  <symbol id="check-circle-fill" viewBox="0 0 16 16"><path d="M16 8A8 8 0 1 1 0 8a8 8 0 0 1 16 0zm-3.97-3.03a.75.75 0 0 0-1.08.022L7.477 9.417 5.384 7.323a.75.75 0 0 0-1.06 1.06L6.97 11.03a.75.75 0 0 0 1.079-.02l3.992-4.99a.75.75 0 0 0-.01-1.05z"/></symbol>
  <symbol id="chevron-up" viewBox="0 0 16 16"><path fill-rule="evenodd" d="M7.646 4.646a.5.5 0 0 1 .708 0l6 6a.5.5 0 0 1-.708.708L8 5.707l-5.646 5.647a.5.5 0 0 1-.708-.708l6-6z"/></symbol>
  <symbol id="circle" viewBox="0 0 16 16"><path d="M8 15A7 7 0 1 1 8 1a7 7 0 0 1 0 14zm0 1A8 8 0 1 0 8 0a8 8 0 0 0 0 16z"/></symbol>
  <symbol id="circle-fill" viewBox="0 0 16 16"><circle cx="8" cy="8" r="8"/></symbol>
  <symbol id="clipboard-check" viewBox="0 0 16 16"><path fill-rule="evenodd" d="M10.854 7.146a.5.5 0 0 1 0 .708l-3 3a.5.5 0 0 1-.708 0l-1.5-1.5a.5.5 0 1 1 .708-.708L7.5 9.793l2.646-2.647a.5.5 0 0 1 .708 0z"/>
  <path d="M4 1.5H3a2 2 0 0 0-2 2V14a2 2 0 0 0 2 2h10a2 2 0 0 0 2-2V3.5a2 2 0 0 0-2-2h-1v1h1a1 1 0 0 1 1 1V14a1 1 0 0 1-1 1H3a1 1 0 0 1-1-1V3.5a1 1 0 0 1 1-1h1v-1z"/>
  <path d="M9.5 1a.5.5 0 0 1 .5.5v1a.5.5 0 0 1-.5.5h-3a.5.5 0 0 1-.5-.5v-1a.5.5 0 0 1 .5-.5h3zm-3-1A1.5 1.5 0 0 0 5 1.5v1A1.5 1.5 0 0 0 6.5 4h3A1.5 1.5 0 0 0 11 2.5v-1A1.5 1.5 0 0 0 9.5 0h-3z"/></symbol>
  <symbol id="clock" viewBox="0 0 16 16"><path d="M8 3.5a.5.5 0 0 0-1 0V9a.5.5 0 0 0 .252.434l3.5 2a.5.5 0 0 0 .496-.868L8 8.71V3.5z"/>
  <path d="M8 16A8 8 0 1 0 8 0a8 8 0 0 0 0 16zm7-8A7 7 0 1 1 1 8a7 7 0 0 1 14 0z"/></symbol>
  <symbol id="clock-history" viewBox="0 0 16 16"><path d="M8.515 1.019A7 7 0 0 0 8 1V0a8 8 0 0 1 .589.022l-.074.997zm2.004.45a7.003 7.003 0 0 0-.985-.299l.219-.976c.383.086.76.2 1.126.342l-.36.933zm1.37.71a7.01 7.01 0 0 0-.439-.27l.493-.87a8.025 8.025 0 0 1 .979.654l-.615.789a6.996 6.996 0 0 0-.418-.302zm1.834 1.79a6.99 6.99 0 0 0-.653-.796l.724-.69c.27.285.52.59.747.91l-.818.576zm.744 1.352a7.08 7.08 0 0 0-.214-.468l.893-.45a7.976 7.976 0 0 1 .45 1.088l-.95.313a7.023 7.023 0 0 0-.179-.483zm.53 2.507a6.991 6.991 0 0 0-.1-1.025l.985-.17c.067.386.106.778.116 1.17l-1 .025zm-.131 1.538c.033-.17.06-.339.081-.51l.993.123a7.957 7.957 0 0 1-.23 1.155l-.964-.267c.046-.165.086-.332.12-.501zm-.952 2.379c.184-.29.346-.594.486-.908l.914.405c-.16.36-.345.706-.555 1.038l-.845-.535zm-.964 1.205c.122-.122.239-.248.35-.378l.758.653a8.073 8.073 0 0 1-.401.432l-.707-.707z"/>
  <path d="M8 1a7 7 0 1 0 4.95 11.95l.707.707A8.001 8.001 0 1 1 8 0v1z"/>
  <path d="M7.5 3a.5.5 0 0 1 .5.5v5.21l3.248 1.856a.5.5 0 0 1-.496.868l-3.5-2A.5.5 0 0 1 7 9V3.5a.5.5 0 0 1 .5-.5z"/></symbol>
  <symbol id="coin" viewBox="0 0 16 16"><path d="M5.5 9.511c.076.954.83 1.697 2.182 1.785V12h.6v-.709c1.4-.098 2.218-.846 2.218-1.932 0-.987-.626-1.496-1.745-1.76l-.473-.112V5.57c.6.068.982.396 1.074.85h1.052c-.076-.919-.864-1.638-2.126-1.716V4h-.6v.719c-1.195.117-2.01.836-2.01 1.853 0 .9.606 1.472 1.613 1.707l.397.098v2.034c-.615-.093-1.022-.43-1.114-.9H5.5zm2.177-2.166c-.59-.137-.91-.416-.91-.836 0-.47.345-.822.915-.925v1.76h-.005zm.692 1.193c.717.166 1.048.435 1.048.91 0 .542-.412.914-1.135.982V8.518l.087.02z"/>
  <path d="M8 15A7 7 0 1 1 8 1a7 7 0 0 1 0 14zm0 1A8 8 0 1 0 8 0a8 8 0 0 0 0 16z"/>
  <path d="M8 13.5a5.5 5.5 0 1 1 0-11 5.5 5.5 0 0 1 0 11zm0 .5A6 6 0 1 0 8 2a6 6 0 0 0 0 12z"/></symbol>
  <symbol id="collection" viewBox="0 0 16 16"><path d="M2.5 3.5a.5.5 0 0 1 0-1h11a.5.5 0 0 1 0 1h-11zm2-2a.5.5 0 0 1 0-1h7a.5.5 0 0 1 0 1h-7zM0 13a1.5 1.5 0 0 0 1.5 1.5h13A1.5 1.5 0 0 0 16 13V6a1.5 1.5 0 0 0-1.5-1.5h-13A1.5 1.5 0 0 0 0 6v7zm1.5.5A.5.5 0 0 1 1 13V6a.5.5 0 0 1 .5-.5h13a.5.5 0 0 1 .5.5v7a.5.5 0 0 1-.5.5h-13z"/></symbol>
  <symbol id="compass" viewBox="0 0 16 16"><path d="M8 16.016a7.5 7.5 0 0 0 1.962-14.74A1 1 0 0 0 9 0H7a1 1 0 0 0-.962 1.276A7.5 7.5 0 0 0 8 16.016zm6.5-7.5a6.5 6.5 0 1 1-13 0 6.5 6.5 0 0 1 13 0z"/>
  <path d="m6.94 7.44 4.95-2.83-2.83 4.95-4.949 2.83 2.828-4.95z"/></symbol>
  <symbol id="credit-card" viewBox="0 0 16 16"><path d="M0 4a2 2 0 0 1 2-2h12a2 2 0 0 1 2 2v8a2 2 0 0 1-2 2H2a2 2 0 0 1-2-2V4zm2-1a1 1 0 0 0-1 1v1h14V4a1 1 0 0 0-1-1H2zm13 4H1v5a1 1 0 0 0 1 1h12a1 1 0 0 0 1-1V7z"/>
  <path d="M2 10a1 1 0 0 1 1-1h1a1 1 0 0 1 1 1v1a1 1 0 0 1-1 1H3a1 1 0 0 1-1-1v-1z"/></symbol>
  <symbol id="cup-hot" viewBox="0 0 16 16"><path fill-rule="evenodd" d="M.5 6a.5.5 0 0 0-.488.608l1.652 7.434A2.5 2.5 0 0 0 4.104 16h5.792a2.5 2.5 0 0 0 2.44-1.958l.131-.59a3 3 0 0 0 1.3-5.854l.221-.99A.5.5 0 0 0 13.5 6H.5ZM13 12.5a2.01 2.01 0 0 1-.316-.025l.867-3.898A2.001 2.001 0 0 1 13 12.5ZM2.64 13.825 1.123 7h11.754l-1.517 6.825A1.5 1.5 0 0 1 9.896 15H4.104a1.5 1.5 0 0 1-1.464-1.175Z"/>
  <path d="m4.4.8-.003.004-.014.019a4.167 4.167 0 0 0-.204.31 2.327 2.327 0 0 0-.141.267c-.026.06-.034.092-.037.103v.004a.593.593 0 0 0 .091.248c.075.133.178.272.308.445l.01.012c.118.158.26.347.37.543.112.2.22.455.22.745 0 .188-.065.368-.119.494a3.31 3.31 0 0 1-.202.388 5.444 5.444 0 0 1-.253.382l-.018.025-.005.008-.002.002A.5.5 0 0 1 3.6 4.2l.003-.004.014-.019a4.149 4.149 0 0 0 .204-.31 2.06 2.06 0 0 0 .141-.267c.026-.06.034-.092.037-.103a.593.593 0 0 0-.09-.252A4.334 4.334 0 0 0 3.6 2.8l-.01-.012a5.099 5.099 0 0 1-.37-.543A1.53 1.53 0 0 1 3 1.5c0-.188.065-.368.119-.494.059-.138.134-.274.202-.388a5.446 5.446 0 0 1 .253-.382l.025-.035A.5.5 0 0 1 4.4.8Zm3 0-.003.004-.014.019a4.167 4.167 0 0 0-.204.31 2.327 2.327 0 0 0-.141.267c-.026.06-.034.092-.037.103v.004a.593.593 0 0 0 .091.248c.075.133.178.272.308.445l.01.012c.118.158.26.347.37.543.112.2.22.455.22.745 0 .188-.065.368-.119.494a3.31 3.31 0 0 1-.202.388 5.444 5.444 0 0 1-.253.382l-.018.025-.005.008-.002.002A.5.5 0 0 1 6.6 4.2l.003-.004.014-.019a4.149 4.149 0 0 0 .204-.31 2.06 2.06 0 0 0 .141-.267c.026-.06.034-.092.037-.103a.593.593 0 0 0-.09-.252A4.334 4.334 0 0 0 6.6 2.8l-.01-.012a5.099 5.099 0 0 1-.37-.543A1.53 1.53 0 0 1 6 1.5c0-.188.065-.368.119-.494.059-.138.134-.274.202-.388a5.446 5.446 0 0 1 .253-.382l.025-.035A.5.5 0 0 1 7.4.8Zm3 0-.003.004-.014.019a4.077 4.077 0 0 0-.204.31 2.337 2.337 0 0 0-.141.267c-.026.06-.034.092-.037.103v.004a.593.593 0 0 0 .091.248c.075.133.178.272.308.445l.01.012c.118.158.26.347.37.543.112.2.22.455.22.745 0 .188-.065.368-.119.494a3.198 3.198 0 0 1-.202.388 5.385 5.385 0 0 1-.252.382l-.019.025-.005.008-.002.002A.5.5 0 0 1 9.6 4.2l.003-.004.014-.019a4.149 4.149 0 0 0 .204-.31 2.06 2.06 0 0 0 .141-.267c.026-.06.034-.092.037-.103a.593.593 0 0 0-.09-.252A4.334 4.334 0 0 0 9.6 2.8l-.01-.012a5.099 5.099 0 0 1-.37-.543A1.53 1.53 0 0 1 9 1.5c0-.188.065-.368.119-.494.059-.138.134-.274.202-.388a5.446 5.446 0 0 1 .253-.382l.025-.035A.5.5 0 0 1 10.4.8Z"/></symbol>
  <symbol id="cup-straw" viewBox="0 0 16 16"><path d="M13.902.334a.5.5 0 0 1-.28.65l-2.254.902-.4 1.927c.376.095.715.215.972.367.228.135.56.396.56.82 0 .046-.004.09-.011.132l-.962 9.068a1.28 1.28 0 0 1-.524.93c-.488.34-1.494.87-3.01.87-1.516 0-2.522-.53-3.01-.87a1.28 1.28 0 0 1-.524-.93L3.51 5.132A.78.78 0 0 1 3.5 5c0-.424.332-.685.56-.82.262-.154.607-.276.99-.372C5.824 3.614 6.867 3.5 8 3.5c.712 0 1.389.045 1.985.127l.464-2.215a.5.5 0 0 1 .303-.356l2.5-1a.5.5 0 0 1 .65.278zM9.768 4.607A13.991 13.991 0 0 0 8 4.5c-1.076 0-2.033.11-2.707.278A3.284 3.284 0 0 0 4.645 5c.146.073.362.15.648.222C5.967 5.39 6.924 5.5 8 5.5c.571 0 1.109-.03 1.588-.085l.18-.808zm.292 1.756C9.445 6.45 8.742 6.5 8 6.5c-1.133 0-2.176-.114-2.95-.308a5.514 5.514 0 0 1-.435-.127l.838 8.03c.013.121.06.186.102.215.357.249 1.168.69 2.438.69 1.27 0 2.081-.441 2.438-.69.042-.029.09-.094.102-.215l.852-8.03a5.517 5.517 0 0 1-.435.127 8.88 8.88 0 0 1-.89.17zM4.467 4.884s.003.002.005.006l-.005-.006zm7.066 0-.005.006c.002-.004.005-.006.005-.006zM11.354 5a3.174 3.174 0 0 0-.604-.21l-.099.445.055-.013c.286-.072.502-.149.648-.222z"/></symbol>
  <symbol id="currency-exchange" viewBox="0 0 16 16"><path d="M0 5a5.002 5.002 0 0 0 4.027 4.905 6.46 6.46 0 0 1 .544-2.073C3.695 7.536 3.132 6.864 3 5.91h-.5v-.426h.466V5.05c0-.046 0-.093.004-.135H2.5v-.427h.511C3.236 3.24 4.213 2.5 5.681 2.5c.316 0 .59.031.819.085v.733a3.46 3.46 0 0 0-.815-.082c-.919 0-1.538.466-1.734 1.252h1.917v.427h-1.98c-.003.046-.003.097-.003.147v.422h1.983v.427H3.93c.118.602.468 1.03 1.005 1.229a6.5 6.5 0 0 1 4.97-3.113A5.002 5.002 0 0 0 0 5zm16 5.5a5.5 5.5 0 1 1-11 0 5.5 5.5 0 0 1 11 0zm-7.75 1.322c.069.835.746 1.485 1.964 1.562V14h.54v-.62c1.259-.086 1.996-.74 1.996-1.69 0-.865-.563-1.31-1.57-1.54l-.426-.1V8.374c.54.06.884.347.966.745h.948c-.07-.804-.779-1.433-1.914-1.502V7h-.54v.629c-1.076.103-1.808.732-1.808 1.622 0 .787.544 1.288 1.45 1.493l.358.085v1.78c-.554-.08-.92-.376-1.003-.787H8.25zm1.96-1.895c-.532-.12-.82-.364-.82-.732 0-.41.311-.719.824-.809v1.54h-.005zm.622 1.044c.645.145.943.38.943.796 0 .474-.37.8-1.02.86v-1.674l.077.018z"/></symbol>
  <symbol id="diagram-3" viewBox="0 0 16 16"><path fill-rule="evenodd" d="M6 3.5A1.5 1.5 0 0 1 7.5 2h1A1.5 1.5 0 0 1 10 3.5v1A1.5 1.5 0 0 1 8.5 6v1H14a.5.5 0 0 1 .5.5v1a.5.5 0 0 1-1 0V8h-5v.5a.5.5 0 0 1-1 0V8h-5v.5a.5.5 0 0 1-1 0v-1A.5.5 0 0 1 2 7h5.5V6A1.5 1.5 0 0 1 6 4.5v-1zM8.5 5a.5.5 0 0 0 .5-.5v-1a.5.5 0 0 0-.5-.5h-1a.5.5 0 0 0-.5.5v1a.5.5 0 0 0 .5.5h1zM0 11.5A1.5 1.5 0 0 1 1.5 10h1A1.5 1.5 0 0 1 4 11.5v1A1.5 1.5 0 0 1 2.5 14h-1A1.5 1.5 0 0 1 0 12.5v-1zm1.5-.5a.5.5 0 0 0-.5.5v1a.5.5 0 0 0 .5.5h1a.5.5 0 0 0 .5-.5v-1a.5.5 0 0 0-.5-.5h-1zm4.5.5A1.5 1.5 0 0 1 7.5 10h1a1.5 1.5 0 0 1 1.5 1.5v1A1.5 1.5 0 0 1 8.5 14h-1A1.5 1.5 0 0 1 6 12.5v-1zm1.5-.5a.5.5 0 0 0-.5.5v1a.5.5 0 0 0 .5.5h1a.5.5 0 0 0 .5-.5v-1a.5.5 0 0 0-.5-.5h-1zm4.5.5a1.5 1.5 0 0 1 1.5-1.5h1a1.5 1.5 0 0 1 1.5 1.5v1a1.5 1.5 0 0 1-1.5 1.5h-1a1.5 1.5 0 0 1-1.5-1.5v-1zm1.5-.5a.5.5 0 0 0-.5.5v1a.5.5 0 0 0 .5.5h1a.5.5 0 0 0 .5-.5v-1a.5.5 0 0 0-.5-.5h-1z"/></symbol>
  <symbol id="disc" viewBox="0 0 16 16"><path d="M8 15A7 7 0 1 1 8 1a7 7 0 0 1 0 14zm0 1A8 8 0 1 0 8 0a8 8 0 0 0 0 16z"/>
  <path d="M10 8a2 2 0 1 1-4 0 2 2 0 0 1 4 0zM8 4a4 4 0 0 0-4 4 .5.5 0 0 1-1 0 5 5 0 0 1 5-5 .5.5 0 0 1 0 1zm4.5 3.5a.5.5 0 0 1 .5.5 5 5 0 0 1-5 5 .5.5 0 0 1 0-1 4 4 0 0 0 4-4 .5.5 0 0 1 .5-.5z"/></symbol>
  <symbol id="door-closed" viewBox="0 0 16 16"><path d="M3 2a1 1 0 0 1 1-1h8a1 1 0 0 1 1 1v13h1.5a.5.5 0 0 1 0 1h-13a.5.5 0 0 1 0-1H3V2zm1 13h8V2H4v13z"/>
  <path d="M9 9a1 1 0 1 0 2 0 1 1 0 0 0-2 0z"/></symbol>
  <symbol id="door-open" viewBox="0 0 16 16"><path d="M8.5 10c-.276 0-.5-.448-.5-1s.224-1 .5-1 .5.448.5 1-.224 1-.5 1z"/>
  <path d="M10.828.122A.5.5 0 0 1 11 .5V1h.5A1.5 1.5 0 0 1 13 2.5V15h1.5a.5.5 0 0 1 0 1h-13a.5.5 0 0 1 0-1H3V1.5a.5.5 0 0 1 .43-.495l7-1a.5.5 0 0 1 .398.117zM11.5 2H11v13h1V2.5a.5.5 0 0 0-.5-.5zM4 1.934V15h6V1.077l-6 .857z"/></symbol>
  <symbol id="droplet" viewBox="0 0 16 16"><path fill-rule="evenodd" d="M7.21.8C7.69.295 8 0 8 0c.109.363.234.708.371 1.038.812 1.946 2.073 3.35 3.197 4.6C12.878 7.096 14 8.345 14 10a6 6 0 0 1-12 0C2 6.668 5.58 2.517 7.21.8zm.413 1.021A31.25 31.25 0 0 0 5.794 3.99c-.726.95-1.436 2.008-1.96 3.07C3.304 8.133 3 9.138 3 10a5 5 0 0 0 10 0c0-1.201-.796-2.157-2.181-3.7l-.03-.032C9.75 5.11 8.5 3.72 7.623 1.82z"/>
  <path fill-rule="evenodd" d="M4.553 7.776c.82-1.641 1.717-2.753 2.093-3.13l.708.708c-.29.29-1.128 1.311-1.907 2.87l-.894-.448z"/></symbol>
  <symbol id="droplet-half" viewBox="0 0 16 16"><path fill-rule="evenodd" d="M7.21.8C7.69.295 8 0 8 0c.109.363.234.708.371 1.038.812 1.946 2.073 3.35 3.197 4.6C12.878 7.096 14 8.345 14 10a6 6 0 0 1-12 0C2 6.668 5.58 2.517 7.21.8zm.413 1.021A31.25 31.25 0 0 0 5.794 3.99c-.726.95-1.436 2.008-1.96 3.07C3.304 8.133 3 9.138 3 10c0 0 2.5 1.5 5 .5s5-.5 5-.5c0-1.201-.796-2.157-2.181-3.7l-.03-.032C9.75 5.11 8.5 3.72 7.623 1.82z"/>
  <path fill-rule="evenodd" d="M4.553 7.776c.82-1.641 1.717-2.753 2.093-3.13l.708.708c-.29.29-1.128 1.311-1.907 2.87l-.894-.448z"/></symbol>
  <symbol id="envelope" viewBox="0 0 16 16"><path d="M0 4a2 2 0 0 1 2-2h12a2 2 0 0 1 2 2v8a2 2 0 0 1-2 2H2a2 2 0 0 1-2-2V4Zm2-1a1 1 0 0 0-1 1v.217l7 4.2 7-4.2V4a1 1 0 0 0-1-1H2Zm13 2.383-4.708 2.825L15 11.105V5.383Zm-.034 6.876-5.64-3.471L8 9.583l-1.326-.795-5.64 3.47A1 1 0 0 0 2 13h12a1 1 0 0 0 .966-.741ZM1 11.105l4.708-2.897L1 5.383v5.722Z"/></symbol>
  <symbol id="exclamation-triangle" viewBox="0 0 16 16"><path d="M7.938 2.016A.13.13 0 0 1 8.002 2a.13.13 0 0 1 .063.016.146.146 0 0 1 .054.057l6.857 11.667c.036.06.035.124.002.183a.163.163 0 0 1-.054.06.116.116 0 0 1-.066.017H1.146a.115.115 0 0 1-.066-.017.163.163 0 0 1-.054-.06.176.176 0 0 1 .002-.183L7.884 2.073a.147.147 0 0 1 .054-.057zm1.044-.45a1.13 1.13 0 0 0-1.96 0L.165 13.233c-.457.778.091 1.767.98 1.767h13.713c.889 0 1.438-.99.98-1.767L8.982 1.566z"/>
  <path d="M7.002 12a1 1 0 1 1 2 0 1 1 0 0 1-2 0zM7.1 5.995a.905.905 0 1 1 1.8 0l-.35 3.507a.552.552 0 0 1-1.1 0L7.1 5.995z"/></symbol>
  <symbol id="eye" viewBox="0 0 16 16"><path d="M16 8s-3-5.5-8-5.5S0 8 0 8s3 5.5 8 5.5S16 8 16 8zM1.173 8a13.133 13.133 0 0 1 1.66-2.043C4.12 4.668 5.88 3.5 8 3.5c2.12 0 3.879 1.168 5.168 2.457A13.133 13.133 0 0 1 14.828 8c-.058.087-.122.183-.195.288-.335.48-.83 1.12-1.465 1.755C11.879 11.332 10.119 12.5 8 12.5c-2.12 0-3.879-1.168-5.168-2.457A13.134 13.134 0 0 1 1.172 8z"/>
  <path d="M8 5.5a2.5 2.5 0 1 0 0 5 2.5 2.5 0 0 0 0-5zM4.5 8a3.5 3.5 0 1 1 7 0 3.5 3.5 0 0 1-7 0z"/></symbol>
  <symbol id="file-earmark-check" viewBox="0 0 16 16"><path d="M10.854 7.854a.5.5 0 0 0-.708-.708L7.5 9.793 6.354 8.646a.5.5 0 1 0-.708.708l1.5 1.5a.5.5 0 0 0 .708 0l3-3z"/>
  <path d="M14 14V4.5L9.5 0H4a2 2 0 0 0-2 2v12a2 2 0 0 0 2 2h8a2 2 0 0 0 2-2zM9.5 3A1.5 1.5 0 0 0 11 4.5h2V14a1 1 0 0 1-1 1H4a1 1 0 0 1-1-1V2a1 1 0 0 1 1-1h5.5v2z"/></symbol>
  <symbol id="file-earmark-text" viewBox="0 0 16 16"><path d="M5.5 7a.5.5 0 0 0 0 1h5a.5.5 0 0 0 0-1h-5zM5 9.5a.5.5 0 0 1 .5-.5h5a.5.5 0 0 1 0 1h-5a.5.5 0 0 1-.5-.5zm0 2a.5.5 0 0 1 .5-.5h2a.5.5 0 0 1 0 1h-2a.5.5 0 0 1-.5-.5z"/>
  <path d="M9.5 0H4a2 2 0 0 0-2 2v12a2 2 0 0 0 2 2h8a2 2 0 0 0 2-2V4.5L9.5 0zm0 1v2A1.5 1.5 0 0 0 11 4.5h2V14a1 1 0 0 1-1 1H4a1 1 0 0 1-1-1V2a1 1 0 0 1 1-1h5.5z"/></symbol>
  <symbol id="file-text" viewBox="0 0 16 16"><path d="M5 4a.5.5 0 0 0 0 1h6a.5.5 0 0 0 0-1H5zm-.5 2.5A.5.5 0 0 1 5 6h6a.5.5 0 0 1 0 1H5a.5.5 0 0 1-.5-.5zM5 8a.5.5 0 0 0 0 1h6a.5.5 0 0 0 0-1H5zm0 2a.5.5 0 0 0 0 1h3a.5.5 0 0 0 0-1H5z"/>
  <path d="M2 2a2 2 0 0 1 2-2h8a2 2 0 0 1 2 2v12a2 2 0 0 1-2 2H4a2 2 0 0 1-2-2V2zm10-1H4a1 1 0 0 0-1 1v12a1 1 0 0 0 1 1h8a1 1 0 0 0 1-1V2a1 1 0 0 0-1-1z"/></symbol>
  <symbol id="flag" viewBox="0 0 16 16"><path d="M14.778.085A.5.5 0 0 1 15 .5V8a.5.5 0 0 1-.314.464L14.5 8l.186.464-.003.001-.006.003-.023.009a12.435 12.435 0 0 1-.397.15c-.264.095-.631.223-1.047.35-.816.252-1.879.523-2.71.523-.847 0-1.548-.28-2.158-.525l-.028-.01C7.68 8.71 7.14 8.5 6.5 8.5c-.7 0-1.638.23-2.437.477A19.626 19.626 0 0 0 3 9.342V15.5a.5.5 0 0 1-1 0V.5a.5.5 0 0 1 1 0v.282c.226-.079.496-.17.79-.26C4.606.272 5.67 0 6.5 0c.84 0 1.524.277 2.121.519l.043.018C9.286.788 9.828 1 10.5 1c.7 0 1.638-.23 2.437-.477a19.587 19.587 0 0 0 1.349-.476l.019-.007.004-.002h.001M14 1.221c-.22.078-.48.167-.766.255-.81.252-1.872.523-2.734.523-.886 0-1.592-.286-2.203-.534l-.008-.003C7.662 1.21 7.139 1 6.5 1c-.669 0-1.606.229-2.415.478A21.294 21.294 0 0 0 3 1.845v6.433c.22-.078.48-.167.766-.255C4.576 7.77 5.638 7.5 6.5 7.5c.847 0 1.548.28 2.158.525l.028.01C9.32 8.29 9.86 8.5 10.5 8.5c.668 0 1.606-.229 2.415-.478A21.317 21.317 0 0 0 14 7.655V1.222z"/></symbol>
  <symbol id="flower1" viewBox="0 0 16 16"><path d="M6.174 1.184a2 2 0 0 1 3.652 0A2 2 0 0 1 12.99 3.01a2 2 0 0 1 1.826 3.164 2 2 0 0 1 0 3.652 2 2 0 0 1-1.826 3.164 2 2 0 0 1-3.164 1.826 2 2 0 0 1-3.652 0A2 2 0 0 1 3.01 12.99a2 2 0 0 1-1.826-3.164 2 2 0 0 1 0-3.652A2 2 0 0 1 3.01 3.01a2 2 0 0 1 3.164-1.826zM8 1a1 1 0 0 0-.998 1.03l.01.091c.012.077.029.176.054.296.049.241.122.542.213.887.182.688.428 1.513.676 2.314L8 5.762l.045-.144c.248-.8.494-1.626.676-2.314.091-.345.164-.646.213-.887a4.997 4.997 0 0 0 .064-.386L9 2a1 1 0 0 0-1-1zM2 9l.03-.002.091-.01a4.99 4.99 0 0 0 .296-.054c.241-.049.542-.122.887-.213a60.59 60.59 0 0 0 2.314-.676L5.762 8l-.144-.045a60.59 60.59 0 0 0-2.314-.676 16.705 16.705 0 0 0-.887-.213 4.99 4.99 0 0 0-.386-.064L2 7a1 1 0 1 0 0 2zm7 5-.002-.03a5.005 5.005 0 0 0-.064-.386 16.398 16.398 0 0 0-.213-.888 60.582 60.582 0 0 0-.676-2.314L8 10.238l-.045.144c-.248.8-.494 1.626-.676 2.314-.091.345-.164.646-.213.887a4.996 4.996 0 0 0-.064.386L7 14a1 1 0 1 0 2 0zm-5.696-2.134.025-.017a5.001 5.001 0 0 0 .303-.248c.184-.164.408-.377.661-.629A60.614 60.614 0 0 0 5.96 9.23l.103-.111-.147.033a60.88 60.88 0 0 0-2.343.572c-.344.093-.64.18-.874.258a5.063 5.063 0 0 0-.367.138l-.027.014a1 1 0 1 0 1 1.732zM4.5 14.062a1 1 0 0 0 1.366-.366l.014-.027c.01-.02.021-.048.036-.084a5.09 5.09 0 0 0 .102-.283c.078-.233.165-.53.258-.874a60.6 60.6 0 0 0 .572-2.343l.033-.147-.11.102a60.848 60.848 0 0 0-1.743 1.667 17.07 17.07 0 0 0-.629.66 5.06 5.06 0 0 0-.248.304l-.017.025a1 1 0 0 0 .366 1.366zm9.196-8.196a1 1 0 0 0-1-1.732l-.025.017a4.951 4.951 0 0 0-.303.248 16.69 16.69 0 0 0-.661.629A60.72 60.72 0 0 0 10.04 6.77l-.102.111.147-.033a60.6 60.6 0 0 0 2.342-.572c.345-.093.642-.18.875-.258a4.993 4.993 0 0 0 .367-.138.53.53 0 0 0 .027-.014zM11.5 1.938a1 1 0 0 0-1.366.366l-.014.027c-.01.02-.021.048-.036.084a5.09 5.09 0 0 0-.102.283c-.078.233-.165.53-.258.875a60.62 60.62 0 0 0-.572 2.342l-.033.147.11-.102a60.848 60.848 0 0 0 1.743-1.667c.252-.253.465-.477.629-.66a5.001 5.001 0 0 0 .248-.304l.017-.025a1 1 0 0 0-.366-1.366zM14 9a1 1 0 0 0 0-2l-.03.002a4.996 4.996 0 0 0-.386.064c-.242.049-.543.122-.888.213-.688.182-1.513.428-2.314.676L10.238 8l.144.045c.8.248 1.626.494 2.314.676.345.091.646.164.887.213a4.996 4.996 0 0 0 .386.064L14 9zM1.938 4.5a1 1 0 0 0 .393 1.38l.084.035c.072.03.166.064.283.103.233.078.53.165.874.258a60.88 60.88 0 0 0 2.343.572l.147.033-.103-.111a60.584 60.584 0 0 0-1.666-1.742 16.705 16.705 0 0 0-.66-.629 4.996 4.996 0 0 0-.304-.248l-.025-.017a1 1 0 0 0-1.366.366zm2.196-1.196.017.025a4.996 4.996 0 0 0 .248.303c.164.184.377.408.629.661A60.597 60.597 0 0 0 6.77 5.96l.111.102-.033-.147a60.602 60.602 0 0 0-.572-2.342c-.093-.345-.18-.642-.258-.875a5.006 5.006 0 0 0-.138-.367l-.014-.027a1 1 0 1 0-1.732 1zm9.928 8.196a1 1 0 0 0-.366-1.366l-.027-.014a5 5 0 0 0-.367-.138c-.233-.078-.53-.165-.875-.258a60.619 60.619 0 0 0-2.342-.572l-.147-.033.102.111a60.73 60.73 0 0 0 1.667 1.742c.253.252.477.465.66.629a4.946 4.946 0 0 0 .304.248l.025.017a1 1 0 0 0 1.366-.366zm-3.928 2.196a1 1 0 0 0 1.732-1l-.017-.025a5.065 5.065 0 0 0-.248-.303 16.705 16.705 0 0 0-.629-.661A60.462 60.462 0 0 0 9.23 10.04l-.111-.102.033.147a60.6 60.6 0 0 0 .572 2.342c.093.345.18.642.258.875a4.985 4.985 0 0 0 .138.367.575.575 0 0 0 .014.027zM8 9.5a1.5 1.5 0 1 0 0-3 1.5 1.5 0 0 0 0 3z"/></symbol>
  <symbol id="folder" viewBox="0 0 16 16"><path d="M.54 3.87.5 3a2 2 0 0 1 2-2h3.672a2 2 0 0 1 1.414.586l.828.828A2 2 0 0 0 9.828 3h3.982a2 2 0 0 1 1.992 2.181l-.637 7A2 2 0 0 1 13.174 14H2.826a2 2 0 0 1-1.991-1.819l-.637-7a1.99 1.99 0 0 1 .342-1.31zM2.19 4a1 1 0 0 0-.996 1.09l.637 7a1 1 0 0 0 .995.91h10.348a1 1 0 0 0 .995-.91l.637-7A1 1 0 0 0 13.81 4H2.19zm4.69-1.707A1 1 0 0 0 6.172 2H2.5a1 1 0 0 0-1 .981l.006.139C1.72 3.042 1.95 3 2.19 3h5.396l-.707-.707z"/></symbol>
  <symbol id="folder2-open" viewBox="0 0 16 16"><path d="M1 3.5A1.5 1.5 0 0 1 2.5 2h2.764c.958 0 1.76.56 2.311 1.184C7.985 3.648 8.48 4 9 4h4.5A1.5 1.5 0 0 1 15 5.5v.64c.57.265.94.876.856 1.546l-.64 5.124A2.5 2.5 0 0 1 12.733 15H3.266a2.5 2.5 0 0 1-2.481-2.19l-.64-5.124A1.5 1.5 0 0 1 1 6.14V3.5zM2 6h12v-.5a.5.5 0 0 0-.5-.5H9c-.964 0-1.71-.629-2.174-1.154C6.374 3.334 5.82 3 5.264 3H2.5a.5.5 0 0 0-.5.5V6zm-.367 1a.5.5 0 0 0-.496.562l.64 5.124A1.5 1.5 0 0 0 3.266 14h9.468a1.5 1.5 0 0 0 1.489-1.314l.64-5.124A.5.5 0 0 0 14.367 7H1.633z"/></symbol>
  <symbol id="gear" viewBox="0 0 16 16"><path d="M8 4.754a3.246 3.246 0 1 0 0 6.492 3.246 3.246 0 0 0 0-6.492zM5.754 8a2.246 2.246 0 1 1 4.492 0 2.246 2.246 0 0 1-4.492 0z"/>
  <path d="M9.796 1.343c-.527-1.79-3.065-1.79-3.592 0l-.094.319a.873.873 0 0 1-1.255.52l-.292-.16c-1.64-.892-3.433.902-2.54 2.541l.159.292a.873.873 0 0 1-.52 1.255l-.319.094c-1.79.527-1.79 3.065 0 3.592l.319.094a.873.873 0 0 1 .52 1.255l-.16.292c-.892 1.64.901 3.434 2.541 2.54l.292-.159a.873.873 0 0 1 1.255.52l.094.319c.527 1.79 3.065 1.79 3.592 0l.094-.319a.873.873 0 0 1 1.255-.52l.292.16c1.64.893 3.434-.902 2.54-2.541l-.159-.292a.873.873 0 0 1 .52-1.255l.319-.094c1.79-.527 1.79-3.065 0-3.592l-.319-.094a.873.873 0 0 1-.52-1.255l.16-.292c.893-1.64-.902-3.433-2.541-2.54l-.292.159a.873.873 0 0 1-1.255-.52l-.094-.319zm-2.633.283c.246-.835 1.428-.835 1.674 0l.094.319a1.873 1.873 0 0 0 2.693 1.115l.291-.16c.764-.415 1.6.42 1.184 1.185l-.159.292a1.873 1.873 0 0 0 1.116 2.692l.318.094c.835.246.835 1.428 0 1.674l-.319.094a1.873 1.873 0 0 0-1.115 2.693l.16.291c.415.764-.42 1.6-1.185 1.184l-.291-.159a1.873 1.873 0 0 0-2.693 1.116l-.094.318c-.246.835-1.428.835-1.674 0l-.094-.319a1.873 1.873 0 0 0-2.692-1.115l-.292.16c-.764.415-1.6-.42-1.184-1.185l.159-.291A1.873 1.873 0 0 0 1.945 8.93l-.319-.094c-.835-.246-.835-1.428 0-1.674l.319-.094A1.873 1.873 0 0 0 3.06 4.377l-.16-.292c-.415-.764.42-1.6 1.185-1.184l.292.159a1.873 1.873 0 0 0 2.692-1.115l.094-.319z"/></symbol>
  <symbol id="gear-fill" viewBox="0 0 16 16"><path d="M9.405 1.05c-.413-1.4-2.397-1.4-2.81 0l-.1.34a1.464 1.464 0 0 1-2.105.872l-.31-.17c-1.283-.698-2.686.705-1.987 1.987l.169.311c.446.82.023 1.841-.872 2.105l-.34.1c-1.4.413-1.4 2.397 0 2.81l.34.1a1.464 1.464 0 0 1 .872 2.105l-.17.31c-.698 1.283.705 2.686 1.987 1.987l.311-.169a1.464 1.464 0 0 1 2.105.872l.1.34c.413 1.4 2.397 1.4 2.81 0l.1-.34a1.464 1.464 0 0 1 2.105-.872l.31.17c1.283.698 2.686-.705 1.987-1.987l-.169-.311a1.464 1.464 0 0 1 .872-2.105l.34-.1c1.4-.413 1.4-2.397 0-2.81l-.34-.1a1.464 1.464 0 0 1-.872-2.105l.17-.31c.698-1.283-.705-2.686-1.987-1.987l-.311.169a1.464 1.464 0 0 1-2.105-.872l-.1-.34zM8 10.93a2.929 2.929 0 1 1 0-5.86 2.929 2.929 0 0 1 0 5.858z"/></symbol>
  <symbol id="geo-alt" viewBox="0 0 16 16"><path d="M12.166 8.94c-.524 1.062-1.234 2.12-1.96 3.07A31.493 31.493 0 0 1 8 14.58a31.481 31.481 0 0 1-2.206-2.57c-.726-.95-1.436-2.008-1.96-3.07C3.304 7.867 3 6.862 3 6a5 5 0 0 1 10 0c0 .862-.305 1.867-.834 2.94zM8 16s6-5.686 6-10A6 6 0 0 0 2 6c0 4.314 6 10 6 10z"/>
  <path d="M8 8a2 2 0 1 1 0-4 2 2 0 0 1 0 4zm0 1a3 3 0 1 0 0-6 3 3 0 0 0 0 6z"/></symbol>
  <symbol id="gift" viewBox="0 0 16 16"><path d="M3 2.5a2.5 2.5 0 0 1 5 0 2.5 2.5 0 0 1 5 0v.006c0 .07 0 .27-.038.494H15a1 1 0 0 1 1 1v2a1 1 0 0 1-1 1v7.5a1.5 1.5 0 0 1-1.5 1.5h-11A1.5 1.5 0 0 1 1 14.5V7a1 1 0 0 1-1-1V4a1 1 0 0 1 1-1h2.038A2.968 2.968 0 0 1 3 2.506V2.5zm1.068.5H7v-.5a1.5 1.5 0 1 0-3 0c0 .085.002.274.045.43a.522.522 0 0 0 .023.07zM9 3h2.932a.56.56 0 0 0 .023-.07c.043-.156.045-.345.045-.43a1.5 1.5 0 0 0-3 0V3zM1 4v2h6V4H1zm8 0v2h6V4H9zm5 3H9v8h4.5a.5.5 0 0 0 .5-.5V7zm-7 8V7H2v7.5a.5.5 0 0 0 .5.5H7z"/></symbol>
  <symbol id="globe" viewBox="0 0 16 16"><path d="M0 8a8 8 0 1 1 16 0A8 8 0 0 1 0 8zm7.5-6.923c-.67.204-1.335.82-1.887 1.855A7.97 7.97 0 0 0 5.145 4H7.5V1.077zM4.09 4a9.267 9.267 0 0 1 .64-1.539 6.7 6.7 0 0 1 .597-.933A7.025 7.025 0 0 0 2.255 4H4.09zm-.582 3.5c.03-.877.138-1.718.312-2.5H1.674a6.958 6.958 0 0 0-.656 2.5h2.49zM4.847 5a12.5 12.5 0 0 0-.338 2.5H7.5V5H4.847zM8.5 5v2.5h2.99a12.495 12.495 0 0 0-.337-2.5H8.5zM4.51 8.5a12.5 12.5 0 0 0 .337 2.5H7.5V8.5H4.51zm3.99 0V11h2.653c.187-.765.306-1.608.338-2.5H8.5zM5.145 12c.138.386.295.744.468 1.068.552 1.035 1.218 1.65 1.887 1.855V12H5.145zm.182 2.472a6.696 6.696 0 0 1-.597-.933A9.268 9.268 0 0 1 4.09 12H2.255a7.024 7.024 0 0 0 3.072 2.472zM3.82 11a13.652 13.652 0 0 1-.312-2.5h-2.49c.062.89.291 1.733.656 2.5H3.82zm6.853 3.472A7.024 7.024 0 0 0 13.745 12H11.91a9.27 9.27 0 0 1-.64 1.539 6.688 6.688 0 0 1-.597.933zM8.5 12v2.923c.67-.204 1.335-.82 1.887-1.855.173-.324.33-.682.468-1.068H8.5zm3.68-1h2.146c.365-.767.594-1.61.656-2.5h-2.49a13.65 13.65 0 0 1-.312 2.5zm2.802-3.5a6.959 6.959 0 0 0-.656-2.5H12.18c.174.782.282 1.623.312 2.5h2.49zM11.27 2.461c.247.464.462.98.64 1.539h1.835a7.024 7.024 0 0 0-3.072-2.472c.218.284.418.598.597.933zM10.855 4a7.966 7.966 0 0 0-.468-1.068C9.835 1.897 9.17 1.282 8.5 1.077V4h2.355z"/></symbol>
  <symbol id="globe-asia-australia" viewBox="0 0 16 16"><path d="m10.495 6.92 1.278-.619a.483.483 0 0 0 .126-.782c-.252-.244-.682-.139-.932.107-.23.226-.513.373-.816.53l-.102.054c-.338.178-.264.626.1.736a.476.476 0 0 0 .346-.027ZM7.741 9.808V9.78a.413.413 0 1 1 .783.183l-.22.443a.602.602 0 0 1-.12.167l-.193.185a.36.36 0 1 1-.5-.516l.112-.108a.453.453 0 0 0 .138-.326ZM5.672 12.5l.482.233A.386.386 0 1 0 6.32 12h-.416a.702.702 0 0 1-.419-.139l-.277-.206a.302.302 0 1 0-.298.52l.761.325Z"/>
  <path d="M8 0a8 8 0 1 0 0 16A8 8 0 0 0 8 0ZM1.612 10.867l.756-1.288a1 1 0 0 1 1.545-.225l1.074 1.005a.986.986 0 0 0 1.36-.011l.038-.037a.882.882 0 0 0 .26-.755c-.075-.548.37-1.033.92-1.099.728-.086 1.587-.324 1.728-.957.086-.386-.114-.83-.361-1.2-.207-.312 0-.8.374-.8.123 0 .24-.055.318-.15l.393-.474c.196-.237.491-.368.797-.403.554-.064 1.407-.277 1.583-.973.098-.391-.192-.634-.484-.88-.254-.212-.51-.426-.515-.741a6.998 6.998 0 0 1 3.425 7.692 1.015 1.015 0 0 0-.087-.063l-.316-.204a1 1 0 0 0-.977-.06l-.169.082a1 1 0 0 1-.741.051l-1.021-.329A1 1 0 0 0 11.205 9h-.165a1 1 0 0 0-.945.674l-.172.499a1 1 0 0 1-.404.514l-.802.518a1 1 0 0 0-.458.84v.455a1 1 0 0 0 1 1h.257a1 1 0 0 1 .542.16l.762.49a.998.998 0 0 0 .283.126 7.001 7.001 0 0 1-9.49-3.409Z"/></symbol>
  <symbol id="grid" viewBox="0 0 16 16"><path d="M1 2.5A1.5 1.5 0 0 1 2.5 1h3A1.5 1.5 0 0 1 7 2.5v3A1.5 1.5 0 0 1 5.5 7h-3A1.5 1.5 0 0 1 1 5.5v-3zM2.5 2a.5.5 0 0 0-.5.5v3a.5.5 0 0 0 .5.5h3a.5.5 0 0 0 .5-.5v-3a.5.5 0 0 0-.5-.5h-3zm6.5.5A1.5 1.5 0 0 1 10.5 1h3A1.5 1.5 0 0 1 15 2.5v3A1.5 1.5 0 0 1 13.5 7h-3A1.5 1.5 0 0 1 9 5.5v-3zm1.5-.5a.5.5 0 0 0-.5.5v3a.5.5 0 0 0 .5.5h3a.5.5 0 0 0 .5-.5v-3a.5.5 0 0 0-.5-.5h-3zM1 10.5A1.5 1.5 0 0 1 2.5 9h3A1.5 1.5 0 0 1 7 10.5v3A1.5 1.5 0 0 1 5.5 15h-3A1.5 1.5 0 0 1 1 13.5v-3zm1.5-.5a.5.5 0 0 0-.5.5v3a.5.5 0 0 0 .5.5h3a.5.5 0 0 0 .5-.5v-3a.5.5 0 0 0-.5-.5h-3zm6.5.5A1.5 1.5 0 0 1 10.5 9h3a1.5 1.5 0 0 1 1.5 1.5v3a1.5 1.5 0 0 1-1.5 1.5h-3A1.5 1.5 0 0 1 9 13.5v-3zm1.5-.5a.5.5 0 0 0-.5.5v3a.5.5 0 0 0 .5.5h3a.5.5 0 0 0 .5-.5v-3a.5.5 0 0 0-.5-.5h-3z"/></symbol>
  <symbol id="grid-3x3" viewBox="0 0 16 16"><path d="M0 1.5A1.5 1.5 0 0 1 1.5 0h13A1.5 1.5 0 0 1 16 1.5v13a1.5 1.5 0 0 1-1.5 1.5h-13A1.5 1.5 0 0 1 0 14.5v-13zM1.5 1a.5.5 0 0 0-.5.5V5h4V1H1.5zM5 6H1v4h4V6zm1 4h4V6H6v4zm-1 1H1v3.5a.5.5 0 0 0 .5.5H5v-4zm1 0v4h4v-4H6zm5 0v4h3.5a.5.5 0 0 0 .5-.5V11h-4zm0-1h4V6h-4v4zm0-5h4V1.5a.5.5 0 0 0-.5-.5H11v4zm-1 0V1H6v4h4z"/></symbol>
  <symbol id="grid-3x3-gap" viewBox="0 0 16 16"><path d="M4 2v2H2V2h2zm1 12v-2a1 1 0 0 0-1-1H2a1 1 0 0 0-1 1v2a1 1 0 0 0 1 1h2a1 1 0 0 0 1-1zm0-5V7a1 1 0 0 0-1-1H2a1 1 0 0 0-1 1v2a1 1 0 0 0 1 1h2a1 1 0 0 0 1-1zm0-5V2a1 1 0 0 0-1-1H2a1 1 0 0 0-1 1v2a1 1 0 0 0 1 1h2a1 1 0 0 0 1-1zm5 10v-2a1 1 0 0 0-1-1H7a1 1 0 0 0-1 1v2a1 1 0 0 0 1 1h2a1 1 0 0 0 1-1zm0-5V7a1 1 0 0 0-1-1H7a1 1 0 0 0-1 1v2a1 1 0 0 0 1 1h2a1 1 0 0 0 1-1zm0-5V2a1 1 0 0 0-1-1H7a1 1 0 0 0-1 1v2a1 1 0 0 0 1 1h2a1 1 0 0 0 1-1zM9 2v2H7V2h2zm5 0v2h-2V2h2zM4 7v2H2V7h2zm5 0v2H7V7h2zm5 0h-2v2h2V7zM4 12v2H2v-2h2zm5 0v2H7v-2h2zm5 0v2h-2v-2h2zM12 1a1 1 0 0 0-1 1v2a1 1 0 0 0 1 1h2a1 1 0 0 0 1-1V2a1 1 0 0 0-1-1h-2zm-1 6a1 1 0 0 1 1-1h2a1 1 0 0 1 1 1v2a1 1 0 0 1-1 1h-2a1 1 0 0 1-1-1V7zm1 4a1 1 0 0 0-1 1v2a1 1 0 0 0 1 1h2a1 1 0 0 0 1-1v-2a1 1 0 0 0-1-1h-2z"/></symbol>
  <symbol id="heart" viewBox="0 0 16 16"><path d="m8 2.748-.717-.737C5.6.281 2.514.878 1.4 3.053c-.523 1.023-.641 2.5.314 4.385.92 1.815 2.834 3.989 6.286 6.357 3.452-2.368 5.365-4.542 6.286-6.357.955-1.886.838-3.362.314-4.385C13.486.878 10.4.28 8.717 2.01L8 2.748zM8 15C-7.333 4.868 3.279-3.04 7.824 1.143c.06.055.119.112.176.171a3.12 3.12 0 0 1 .176-.17C12.72-3.042 23.333 4.867 8 15z"/></symbol>
  <symbol id="heart-fill" viewBox="0 0 16 16"><path fill-rule="evenodd" d="M8 1.314C12.438-3.248 23.534 4.735 8 15-7.534 4.736 3.562-3.248 8 1.314z"/></symbol>
  <symbol id="heart-pulse" viewBox="0 0 16 16"><path d="m8 2.748-.717-.737C5.6.281 2.514.878 1.4 3.053.918 3.995.78 5.323 1.508 7H.43c-2.128-5.697 4.165-8.83 7.394-5.857.06.055.119.112.176.171a3.12 3.12 0 0 1 .176-.17c3.23-2.974 9.522.159 7.394 5.856h-1.078c.728-1.677.59-3.005.108-3.947C13.486.878 10.4.28 8.717 2.01L8 2.748ZM2.212 10h1.315C4.593 11.183 6.05 12.458 8 13.795c1.949-1.337 3.407-2.612 4.473-3.795h1.315c-1.265 1.566-3.14 3.25-5.788 5-2.648-1.75-4.523-3.434-5.788-5Z"/>
  <path d="M10.464 3.314a.5.5 0 0 0-.945.049L7.921 8.956 6.464 5.314a.5.5 0 0 0-.88-.091L3.732 8H.5a.5.5 0 0 0 0 1H4a.5.5 0 0 0 .416-.223l1.473-2.209 1.647 4.118a.5.5 0 0 0 .945-.049l1.598-5.593 1.457 3.642A.5.5 0 0 0 12 9h3.5a.5.5 0 0 0 0-1h-3.162l-1.874-4.686Z"/></symbol>
  <symbol id="house-check" viewBox="0 0 16 16"><path d="M7.293 1.5a1 1 0 0 1 1.414 0L11 3.793V2.5a.5.5 0 0 1 .5-.5h1a.5.5 0 0 1 .5.5v3.293l2.354 2.353a.5.5 0 0 1-.708.708L8 2.207l-5 5V13.5a.5.5 0 0 0 .5.5h4a.5.5 0 0 1 0 1h-4A1.5 1.5 0 0 1 2 13.5V8.207l-.646.647a.5.5 0 1 1-.708-.708L7.293 1.5Z"/>
  <path d="M12.5 16a3.5 3.5 0 1 0 0-7 3.5 3.5 0 0 0 0 7Zm1.679-4.493-1.335 2.226a.75.75 0 0 1-1.174.144l-.774-.773a.5.5 0 0 1 .708-.707l.547.547 1.17-1.951a.5.5 0 1 1 .858.514Z"/></symbol>
  <symbol id="house-door" viewBox="0 0 16 16"><path d="M8.354 1.146a.5.5 0 0 0-.708 0l-6 6A.5.5 0 0 0 1.5 7.5v7a.5.5 0 0 0 .5.5h4.5a.5.5 0 0 0 .5-.5v-4h2v4a.5.5 0 0 0 .5.5H14a.5.5 0 0 0 .5-.5v-7a.5.5 0 0 0-.146-.354L13 5.793V2.5a.5.5 0 0 0-.5-.5h-1a.5.5 0 0 0-.5.5v1.293L8.354 1.146ZM2.5 14V7.707l5.5-5.5 5.5 5.5V14H10v-4a.5.5 0 0 0-.5-.5h-3a.5.5 0 0 0-.5.5v4H2.5Z"/></symbol>
  <symbol id="images" viewBox="0 0 16 16"><path d="M4.502 9a1.5 1.5 0 1 0 0-3 1.5 1.5 0 0 0 0 3z"/>
  <path d="M14.002 13a2 2 0 0 1-2 2h-10a2 2 0 0 1-2-2V5A2 2 0 0 1 2 3a2 2 0 0 1 2-2h10a2 2 0 0 1 2 2v8a2 2 0 0 1-1.998 2zM14 2H4a1 1 0 0 0-1 1h9.002a2 2 0 0 1 2 2v7A1 1 0 0 0 15 11V3a1 1 0 0 0-1-1zM2.002 4a1 1 0 0 0-1 1v8l2.646-2.354a.5.5 0 0 1 .63-.062l2.66 1.773 3.71-3.71a.5.5 0 0 1 .577-.094l1.777 1.947V5a1 1 0 0 0-1-1h-10z"/></symbol>
  <symbol id="infinity" viewBox="0 0 16 16"><path d="M5.68 5.792 7.345 7.75 5.681 9.708a2.75 2.75 0 1 1 0-3.916ZM8 6.978 6.416 5.113l-.014-.015a3.75 3.75 0 1 0 0 5.304l.014-.015L8 8.522l1.584 1.865.014.015a3.75 3.75 0 1 0 0-5.304l-.014.015L8 6.978Zm.656.772 1.663-1.958a2.75 2.75 0 1 1 0 3.916L8.656 7.75Z"/></symbol>
  <symbol id="info-circle" viewBox="0 0 16 16"><path d="M8 15A7 7 0 1 1 8 1a7 7 0 0 1 0 14zm0 1A8 8 0 1 0 8 0a8 8 0 0 0 0 16z"/>
  <path d="m8.93 6.588-2.29.287-.082.38.45.083c.294.07.352.176.288.469l-.738 3.468c-.194.897.105 1.319.808 1.319.545 0 1.178-.252 1.465-.598l.088-.416c-.2.176-.492.246-.686.246-.275 0-.375-.193-.304-.533L8.93 6.588zM9 4.5a1 1 0 1 1-2 0 1 1 0 0 1 2 0z"/></symbol>
  <symbol id="info-square" viewBox="0 0 16 16"><path d="M14 1a1 1 0 0 1 1 1v12a1 1 0 0 1-1 1H2a1 1 0 0 1-1-1V2a1 1 0 0 1 1-1h12zM2 0a2 2 0 0 0-2 2v12a2 2 0 0 0 2 2h12a2 2 0 0 0 2-2V2a2 2 0 0 0-2-2H2z"/>
  <path d="m8.93 6.588-2.29.287-.082.38.45.083c.294.07.352.176.288.469l-.738 3.468c-.194.897.105 1.319.808 1.319.545 0 1.178-.252 1.465-.598l.088-.416c-.2.176-.492.246-.686.246-.275 0-.375-.193-.304-.533L8.93 6.588zM9 4.5a1 1 0 1 1-2 0 1 1 0 0 1 2 0z"/></symbol>
  <symbol id="lightbulb" viewBox="0 0 16 16"><path d="M2 6a6 6 0 1 1 10.174 4.31c-.203.196-.359.4-.453.619l-.762 1.769A.5.5 0 0 1 10.5 13a.5.5 0 0 1 0 1 .5.5 0 0 1 0 1l-.224.447a1 1 0 0 1-.894.553H6.618a1 1 0 0 1-.894-.553L5.5 15a.5.5 0 0 1 0-1 .5.5 0 0 1 0-1 .5.5 0 0 1-.46-.302l-.761-1.77a1.964 1.964 0 0 0-.453-.618A5.984 5.984 0 0 1 2 6zm6-5a5 5 0 0 0-3.479 8.592c.263.254.514.564.676.941L5.83 12h4.342l.632-1.467c.162-.377.413-.687.676-.941A5 5 0 0 0 8 1z"/></symbol>
  <symbol id="lightning-fill" viewBox="0 0 16 16"><path d="M5.52.359A.5.5 0 0 1 6 0h4a.5.5 0 0 1 .474.658L8.694 6H12.5a.5.5 0 0 1 .395.807l-7 9a.5.5 0 0 1-.873-.454L6.823 9.5H3.5a.5.5 0 0 1-.48-.641l2.5-8.5z"/></symbol>
  <symbol id="link-45deg" viewBox="0 0 16 16"><path d="M4.715 6.542 3.343 7.914a3 3 0 1 0 4.243 4.243l1.828-1.829A3 3 0 0 0 8.586 5.5L8 6.086a1.002 1.002 0 0 0-.154.199 2 2 0 0 1 .861 3.337L6.88 11.45a2 2 0 1 1-2.83-2.83l.793-.792a4.018 4.018 0 0 1-.128-1.287z"/>
  <path d="M6.586 4.672A3 3 0 0 0 7.414 9.5l.775-.776a2 2 0 0 1-.896-3.346L9.12 3.55a2 2 0 1 1 2.83 2.83l-.793.792c.112.42.155.855.128 1.287l1.372-1.372a3 3 0 1 0-4.243-4.243L6.586 4.672z"/></symbol>
  <symbol id="linkedin" viewBox="0 0 16 16"><path d="M0 1.146C0 .513.526 0 1.175 0h13.65C15.474 0 16 .513 16 1.146v13.708c0 .633-.526 1.146-1.175 1.146H1.175C.526 16 0 15.487 0 14.854V1.146zm4.943 12.248V6.169H2.542v7.225h2.401zm-1.2-8.212c.837 0 1.358-.554 1.358-1.248-.015-.709-.52-1.248-1.342-1.248-.822 0-1.359.54-1.359 1.248 0 .694.521 1.248 1.327 1.248h.016zm4.908 8.212V9.359c0-.216.016-.432.08-.586.173-.431.568-.878 1.232-.878.869 0 1.216.662 1.216 1.634v3.865h2.401V9.25c0-2.22-1.184-3.252-2.764-3.252-1.274 0-1.845.7-2.165 1.193v.025h-.016a5.54 5.54 0 0 1 .016-.025V6.169h-2.4c.03.678 0 7.225 0 7.225h2.4z"/></symbol>
  <symbol id="list-check" viewBox="0 0 16 16"><path fill-rule="evenodd" d="M5 11.5a.5.5 0 0 1 .5-.5h9a.5.5 0 0 1 0 1h-9a.5.5 0 0 1-.5-.5zm0-4a.5.5 0 0 1 .5-.5h9a.5.5 0 0 1 0 1h-9a.5.5 0 0 1-.5-.5zm0-4a.5.5 0 0 1 .5-.5h9a.5.5 0 0 1 0 1h-9a.5.5 0 0 1-.5-.5zM3.854 2.146a.5.5 0 0 1 0 .708l-1.5 1.5a.5.5 0 0 1-.708 0l-.5-.5a.5.5 0 1 1 .708-.708L2 3.293l1.146-1.147a.5.5 0 0 1 .708 0zm0 4a.5.5 0 0 1 0 .708l-1.5 1.5a.5.5 0 0 1-.708 0l-.5-.5a.5.5 0 1 1 .708-.708L2 7.293l1.146-1.147a.5.5 0 0 1 .708 0zm0 4a.5.5 0 0 1 0 .708l-1.5 1.5a.5.5 0 0 1-.708 0l-.5-.5a.5.5 0 0 1 .708-.708l.146.147 1.146-1.147a.5.5 0 0 1 .708 0z"/></symbol>
  <symbol id="list-ol" viewBox="0 0 16 16"><path fill-rule="evenodd" d="M5 11.5a.5.5 0 0 1 .5-.5h9a.5.5 0 0 1 0 1h-9a.5.5 0 0 1-.5-.5zm0-4a.5.5 0 0 1 .5-.5h9a.5.5 0 0 1 0 1h-9a.5.5 0 0 1-.5-.5zm0-4a.5.5 0 0 1 .5-.5h9a.5.5 0 0 1 0 1h-9a.5.5 0 0 1-.5-.5z"/>
  <path d="M1.713 11.865v-.474H2c.217 0 .363-.137.363-.317 0-.185-.158-.31-.361-.31-.223 0-.367.152-.373.31h-.59c.016-.467.373-.787.986-.787.588-.002.954.291.957.703a.595.595 0 0 1-.492.594v.033a.615.615 0 0 1 .569.631c.003.533-.502.8-1.051.8-.656 0-1-.37-1.008-.794h.582c.008.178.186.306.422.309.254 0 .424-.145.422-.35-.002-.195-.155-.348-.414-.348h-.3zm-.004-4.699h-.604v-.035c0-.408.295-.844.958-.844.583 0 .96.326.96.756 0 .389-.257.617-.476.848l-.537.572v.03h1.054V9H1.143v-.395l.957-.99c.138-.142.293-.304.293-.508 0-.18-.147-.32-.342-.32a.33.33 0 0 0-.342.338v.041zM2.564 5h-.635V2.924h-.031l-.598.42v-.567l.629-.443h.635V5z"/></symbol>
  <symbol id="list-ul" viewBox="0 0 16 16"><path fill-rule="evenodd" d="M5 11.5a.5.5 0 0 1 .5-.5h9a.5.5 0 0 1 0 1h-9a.5.5 0 0 1-.5-.5zm0-4a.5.5 0 0 1 .5-.5h9a.5.5 0 0 1 0 1h-9a.5.5 0 0 1-.5-.5zm0-4a.5.5 0 0 1 .5-.5h9a.5.5 0 0 1 0 1h-9a.5.5 0 0 1-.5-.5zm-3 1a1 1 0 1 0 0-2 1 1 0 0 0 0 2zm0 4a1 1 0 1 0 0-2 1 1 0 0 0 0 2zm0 4a1 1 0 1 0 0-2 1 1 0 0 0 0 2z"/></symbol>
  <symbol id="luggage" viewBox="0 0 16 16"><path d="M2.5 1a.5.5 0 0 0-.5.5V5h-.5A1.5 1.5 0 0 0 0 6.5v7a1.5 1.5 0 0 0 1 1.415v.335a.75.75 0 0 0 1.5 0V15H4v-1H1.5a.5.5 0 0 1-.5-.5v-7a.5.5 0 0 1 .5-.5h5a.5.5 0 0 1 .5.5V7h1v-.5A1.5 1.5 0 0 0 6.5 5H6V1.5a.5.5 0 0 0-.5-.5h-3ZM5 5H3V2h2v3Z"/>
  <path d="M3 7.5a.5.5 0 0 0-1 0v5a.5.5 0 0 0 1 0v-5ZM11 6a1.5 1.5 0 0 1 1.5 1.5V8h2A1.5 1.5 0 0 1 16 9.5v5a1.5 1.5 0 0 1-1.5 1.5h-8A1.5 1.5 0 0 1 5 14.5v-5A1.5 1.5 0 0 1 6.5 8h2v-.5A1.5 1.5 0 0 1 10 6h1ZM9.5 7.5V8h2v-.5A.5.5 0 0 0 11 7h-1a.5.5 0 0 0-.5.5ZM6 9.5v5a.5.5 0 0 0 .5.5H7V9h-.5a.5.5 0 0 0-.5.5Zm7 5.5V9H8v6h5Zm1.5 0a.5.5 0 0 0 .5-.5v-5a.5.5 0 0 0-.5-.5H14v6h.5Z"/></symbol>
  <symbol id="luggage-fill" viewBox="0 0 16 16"><path d="M2 1.5a.5.5 0 0 1 .5-.5h3a.5.5 0 0 1 .5.5V5h.5A1.5 1.5 0 0 1 8 6.5V7H7v-.5a.5.5 0 0 0-.5-.5h-5a.5.5 0 0 0-.5.5v7a.5.5 0 0 0 .5.5H4v1H2.5v.25a.75.75 0 0 1-1.5 0v-.335A1.5 1.5 0 0 1 0 13.5v-7A1.5 1.5 0 0 1 1.5 5H2V1.5ZM3 5h2V2H3v3Z"/>
  <path d="M2.5 7a.5.5 0 0 1 .5.5v5a.5.5 0 0 1-1 0v-5a.5.5 0 0 1 .5-.5Zm10 1v-.5A1.5 1.5 0 0 0 11 6h-1a1.5 1.5 0 0 0-1.5 1.5V8H8v8h5V8h-.5ZM10 7h1a.5.5 0 0 1 .5.5V8h-2v-.5A.5.5 0 0 1 10 7ZM5 9.5A1.5 1.5 0 0 1 6.5 8H7v8h-.5A1.5 1.5 0 0 1 5 14.5v-5Zm9 6.5V8h.5A1.5 1.5 0 0 1 16 9.5v5a1.5 1.5 0 0 1-1.5 1.5H14Z"/></symbol>
  <symbol id="map" viewBox="0 0 16 16"><path fill-rule="evenodd" d="M15.817.113A.5.5 0 0 1 16 .5v14a.5.5 0 0 1-.402.49l-5 1a.502.502 0 0 1-.196 0L5.5 15.01l-4.902.98A.5.5 0 0 1 0 15.5v-14a.5.5 0 0 1 .402-.49l5-1a.5.5 0 0 1 .196 0L10.5.99l4.902-.98a.5.5 0 0 1 .415.103zM10 1.91l-4-.8v12.98l4 .8V1.91zm1 12.98 4-.8V1.11l-4 .8v12.98zm-6-.8V1.11l-4 .8v12.98l4-.8z"/></symbol>
  <symbol id="moon" viewBox="0 0 16 16"><path d="M6 .278a.768.768 0 0 1 .08.858 7.208 7.208 0 0 0-.878 3.46c0 4.021 3.278 7.277 7.318 7.277.527 0 1.04-.055 1.533-.16a.787.787 0 0 1 .81.316.733.733 0 0 1-.031.893A8.349 8.349 0 0 1 8.344 16C3.734 16 0 12.286 0 7.71 0 4.266 2.114 1.312 5.124.06A.752.752 0 0 1 6 .278zM4.858 1.311A7.269 7.269 0 0 0 1.025 7.71c0 4.02 3.279 7.276 7.319 7.276a7.316 7.316 0 0 0 5.205-2.162c-.337.042-.68.063-1.029.063-4.61 0-8.343-3.714-8.343-8.29 0-1.167.242-2.278.681-3.286z"/></symbol>
  <symbol id="moon-stars" viewBox="0 0 16 16"><path d="M6 .278a.768.768 0 0 1 .08.858 7.208 7.208 0 0 0-.878 3.46c0 4.021 3.278 7.277 7.318 7.277.527 0 1.04-.055 1.533-.16a.787.787 0 0 1 .81.316.733.733 0 0 1-.031.893A8.349 8.349 0 0 1 8.344 16C3.734 16 0 12.286 0 7.71 0 4.266 2.114 1.312 5.124.06A.752.752 0 0 1 6 .278zM4.858 1.311A7.269 7.269 0 0 0 1.025 7.71c0 4.02 3.279 7.276 7.319 7.276a7.316 7.316 0 0 0 5.205-2.162c-.337.042-.68.063-1.029.063-4.61 0-8.343-3.714-8.343-8.29 0-1.167.242-2.278.681-3.286z"/>
  <path d="M10.794 3.148a.217.217 0 0 1 .412 0l.387 1.162c.173.518.579.924 1.097 1.097l1.162.387a.217.217 0 0 1 0 .412l-1.162.387a1.734 1.734 0 0 0-1.097 1.097l-.387 1.162a.217.217 0 0 1-.412 0l-.387-1.162A1.734 1.734 0 0 0 9.31 6.593l-1.162-.387a.217.217 0 0 1 0-.412l1.162-.387a1.734 1.734 0 0 0 1.097-1.097l.387-1.162zM13.863.099a.145.145 0 0 1 .274 0l.258.774c.115.346.386.617.732.732l.774.258a.145.145 0 0 1 0 .274l-.774.258a1.156 1.156 0 0 0-.732.732l-.258.774a.145.145 0 0 1-.274 0l-.258-.774a1.156 1.156 0 0 0-.732-.732l-.774-.258a.145.145 0 0 1 0-.274l.774-.258c.346-.115.617-.386.732-.732L13.863.1z"/></symbol>
  <symbol id="passport" viewBox="0 0 16 16"><path d="M8 5a3 3 0 1 0 0 6 3 3 0 0 0 0-6ZM6 8a2 2 0 1 1 4 0 2 2 0 0 1-4 0Zm-.5 4a.5.5 0 0 0 0 1h5a.5.5 0 0 0 0-1h-5Z"/>
  <path d="M3.232 1.776A1.5 1.5 0 0 0 2 3.252v10.95c0 .445.191.838.49 1.11.367.422.908.688 1.51.688h8a2 2 0 0 0 2-2V4a2 2 0 0 0-1-1.732v-.47A1.5 1.5 0 0 0 11.232.321l-8 1.454ZM4 3h8a1 1 0 0 1 1 1v10a1 1 0 0 1-1 1H4a1 1 0 0 1-1-1V4a1 1 0 0 1 1-1Z"/></symbol>
  <symbol id="people" viewBox="0 0 16 16"><path d="M15 14s1 0 1-1-1-4-5-4-5 3-5 4 1 1 1 1h8Zm-7.978-1A.261.261 0 0 1 7 12.996c.001-.264.167-1.03.76-1.72C8.312 10.629 9.282 10 11 10c1.717 0 2.687.63 3.24 1.276.593.69.758 1.457.76 1.72l-.008.002a.274.274 0 0 1-.014.002H7.022ZM11 7a2 2 0 1 0 0-4 2 2 0 0 0 0 4Zm3-2a3 3 0 1 1-6 0 3 3 0 0 1 6 0ZM6.936 9.28a5.88 5.88 0 0 0-1.23-.247A7.35 7.35 0 0 0 5 9c-4 0-5 3-5 4 0 .667.333 1 1 1h4.216A2.238 2.238 0 0 1 5 13c0-1.01.377-2.042 1.09-2.904.243-.294.526-.569.846-.816ZM4.92 10A5.493 5.493 0 0 0 4 13H1c0-.26.164-1.03.76-1.724.545-.636 1.492-1.256 3.16-1.275ZM1.5 5.5a3 3 0 1 1 6 0 3 3 0 0 1-6 0Zm3-2a2 2 0 1 0 0 4 2 2 0 0 0 0-4Z"/></symbol>
  <symbol id="people-fill" viewBox="0 0 16 16"><path d="M7 14s-1 0-1-1 1-4 5-4 5 3 5 4-1 1-1 1H7Zm4-6a3 3 0 1 0 0-6 3 3 0 0 0 0 6Zm-5.784 6A2.238 2.238 0 0 1 5 13c0-1.355.68-2.75 1.936-3.72A6.325 6.325 0 0 0 5 9c-4 0-5 3-5 4s1 1 1 1h4.216ZM4.5 8a2.5 2.5 0 1 0 0-5 2.5 2.5 0 0 0 0 5Z"/></symbol>
  <symbol id="person-arms-up" viewBox="0 0 16 16"><path d="M8 3a1.5 1.5 0 1 0 0-3 1.5 1.5 0 0 0 0 3Z"/>
  <path d="m5.93 6.704-.846 8.451a.768.768 0 0 0 1.523.203l.81-4.865a.59.59 0 0 1 1.165 0l.81 4.865a.768.768 0 0 0 1.523-.203l-.845-8.451A1.492 1.492 0 0 1 10.5 5.5L13 2.284a.796.796 0 0 0-1.239-.998L9.634 3.84a.72.72 0 0 1-.33.235c-.23.074-.665.176-1.304.176-.64 0-1.074-.102-1.305-.176a.72.72 0 0 1-.329-.235L4.239 1.286a.796.796 0 0 0-1.24.998l2.5 3.216c.317.316.475.758.43 1.204Z"/></symbol>
  <symbol id="person-badge" viewBox="0 0 16 16"><path d="M6.5 2a.5.5 0 0 0 0 1h3a.5.5 0 0 0 0-1h-3zM11 8a3 3 0 1 1-6 0 3 3 0 0 1 6 0z"/>
  <path d="M4.5 0A2.5 2.5 0 0 0 2 2.5V14a2 2 0 0 0 2 2h8a2 2 0 0 0 2-2V2.5A2.5 2.5 0 0 0 11.5 0h-7zM3 2.5A1.5 1.5 0 0 1 4.5 1h7A1.5 1.5 0 0 1 13 2.5v10.795a4.2 4.2 0 0 0-.776-.492C11.392 12.387 10.063 12 8 12s-3.392.387-4.224.803a4.2 4.2 0 0 0-.776.492V2.5z"/></symbol>
  <symbol id="person-check" viewBox="0 0 16 16"><path d="M12.5 16a3.5 3.5 0 1 0 0-7 3.5 3.5 0 0 0 0 7Zm1.679-4.493-1.335 2.226a.75.75 0 0 1-1.174.144l-.774-.773a.5.5 0 0 1 .708-.708l.547.548 1.17-1.951a.5.5 0 1 1 .858.514ZM11 5a3 3 0 1 1-6 0 3 3 0 0 1 6 0ZM8 7a2 2 0 1 0 0-4 2 2 0 0 0 0 4Z"/>
  <path d="M8.256 14a4.474 4.474 0 0 1-.229-1.004H3c.001-.246.154-.986.832-1.664C4.484 10.68 5.711 10 8 10c.26 0 .507.009.74.025.226-.341.496-.65.804-.918C9.077 9.038 8.564 9 8 9c-5 0-6 3-6 4s1 1 1 1h5.256Z"/></symbol>
  <symbol id="play-circle" viewBox="0 0 16 16"><path d="M8 15A7 7 0 1 1 8 1a7 7 0 0 1 0 14zm0 1A8 8 0 1 0 8 0a8 8 0 0 0 0 16z"/>
  <path d="M6.271 5.055a.5.5 0 0 1 .52.038l3.5 2.5a.5.5 0 0 1 0 .814l-3.5 2.5A.5.5 0 0 1 6 10.5v-5a.5.5 0 0 1 .271-.445z"/></symbol>
  <symbol id="play-circle-fill" viewBox="0 0 16 16"><path d="M16 8A8 8 0 1 1 0 8a8 8 0 0 1 16 0zM6.79 5.093A.5.5 0 0 0 6 5.5v5a.5.5 0 0 0 .79.407l3.5-2.5a.5.5 0 0 0 0-.814l-3.5-2.5z"/></symbol>
  <symbol id="plus-circle" viewBox="0 0 16 16"><path d="M8 15A7 7 0 1 1 8 1a7 7 0 0 1 0 14zm0 1A8 8 0 1 0 8 0a8 8 0 0 0 0 16z"/>
  <path d="M8 4a.5.5 0 0 1 .5.5v3h3a.5.5 0 0 1 0 1h-3v3a.5.5 0 0 1-1 0v-3h-3a.5.5 0 0 1 0-1h3v-3A.5.5 0 0 1 8 4z"/></symbol>
  <symbol id="question-circle" viewBox="0 0 16 16"><path d="M8 15A7 7 0 1 1 8 1a7 7 0 0 1 0 14zm0 1A8 8 0 1 0 8 0a8 8 0 0 0 0 16z"/>
  <path d="M5.255 5.786a.237.237 0 0 0 .241.247h.825c.138 0 .248-.113.266-.25.09-.656.54-1.134 1.342-1.134.686 0 1.314.343 1.314 1.168 0 .635-.374.927-.965 1.371-.673.489-1.206 1.06-1.168 1.987l.003.217a.25.25 0 0 0 .25.246h.811a.25.25 0 0 0 .25-.25v-.105c0-.718.273-.927 1.01-1.486.609-.463 1.244-.977 1.244-2.056 0-1.511-1.276-2.241-2.673-2.241-1.267 0-2.655.59-2.75 2.286zm1.557 5.763c0 .533.425.927 1.01.927.609 0 1.028-.394 1.028-.927 0-.552-.42-.94-1.029-.94-.584 0-1.009.388-1.009.94z"/></symbol>
  <symbol id="quote" viewBox="0 0 16 16"><path d="M12 12a1 1 0 0 0 1-1V8.558a1 1 0 0 0-1-1h-1.388c0-.351.021-.703.062-1.054.062-.372.166-.703.31-.992.145-.29.331-.517.559-.683.227-.186.516-.279.868-.279V3c-.579 0-1.085.124-1.52.372a3.322 3.322 0 0 0-1.085.992 4.92 4.92 0 0 0-.62 1.458A7.712 7.712 0 0 0 9 7.558V11a1 1 0 0 0 1 1h2Zm-6 0a1 1 0 0 0 1-1V8.558a1 1 0 0 0-1-1H4.612c0-.351.021-.703.062-1.054.062-.372.166-.703.31-.992.145-.29.331-.517.559-.683.227-.186.516-.279.868-.279V3c-.579 0-1.085.124-1.52.372a3.322 3.322 0 0 0-1.085.992 4.92 4.92 0 0 0-.62 1.458A7.712 7.712 0 0 0 3 7.558V11a1 1 0 0 0 1 1h2Z"/></symbol>
  <symbol id="shield-check" viewBox="0 0 16 16"><path d="M5.338 1.59a61.44 61.44 0 0 0-2.837.856.481.481 0 0 0-.328.39c-.554 4.157.726 7.19 2.253 9.188a10.725 10.725 0 0 0 2.287 2.233c.346.244.652.42.893.533.12.057.218.095.293.118a.55.55 0 0 0 .101.025.615.615 0 0 0 .1-.025c.076-.023.174-.061.294-.118.24-.113.547-.29.893-.533a10.726 10.726 0 0 0 2.287-2.233c1.527-1.997 2.807-5.031 2.253-9.188a.48.48 0 0 0-.328-.39c-.651-.213-1.75-.56-2.837-.855C9.552 1.29 8.531 1.067 8 1.067c-.53 0-1.552.223-2.662.524zM5.072.56C6.157.265 7.31 0 8 0s1.843.265 2.928.56c1.11.3 2.229.655 2.887.87a1.54 1.54 0 0 1 1.044 1.262c.596 4.477-.787 7.795-2.465 9.99a11.775 11.775 0 0 1-2.517 2.453 7.159 7.159 0 0 1-1.048.625c-.28.132-.581.24-.829.24s-.548-.108-.829-.24a7.158 7.158 0 0 1-1.048-.625 11.777 11.777 0 0 1-2.517-2.453C1.928 10.487.545 7.169 1.141 2.692A1.54 1.54 0 0 1 2.185 1.43 62.456 62.456 0 0 1 5.072.56z"/>
  <path d="M10.854 5.146a.5.5 0 0 1 0 .708l-3 3a.5.5 0 0 1-.708 0l-1.5-1.5a.5.5 0 1 1 .708-.708L7.5 7.793l2.646-2.647a.5.5 0 0 1 .708 0z"/></symbol>
  <symbol id="signpost-split" viewBox="0 0 16 16"><path d="M7 7V1.414a1 1 0 0 1 2 0V2h5a1 1 0 0 1 .8.4l.975 1.3a.5.5 0 0 1 0 .6L14.8 5.6a1 1 0 0 1-.8.4H9v10H7v-5H2a1 1 0 0 1-.8-.4L.225 9.3a.5.5 0 0 1 0-.6L1.2 7.4A1 1 0 0 1 2 7h5zm1 3V8H2l-.75 1L2 10h6zm0-5h6l.75-1L14 3H8v2z"/></symbol>
  <symbol id="snow" viewBox="0 0 16 16"><path d="M8 16a.5.5 0 0 1-.5-.5v-1.293l-.646.647a.5.5 0 0 1-.707-.708L7.5 12.793V8.866l-3.4 1.963-.496 1.85a.5.5 0 1 1-.966-.26l.237-.882-1.12.646a.5.5 0 0 1-.5-.866l1.12-.646-.884-.237a.5.5 0 1 1 .26-.966l1.848.495L7 8 3.6 6.037l-1.85.495a.5.5 0 0 1-.258-.966l.883-.237-1.12-.646a.5.5 0 1 1 .5-.866l1.12.646-.237-.883a.5.5 0 1 1 .966-.258l.495 1.849L7.5 7.134V3.207L6.147 1.854a.5.5 0 1 1 .707-.708l.646.647V.5a.5.5 0 1 1 1 0v1.293l.647-.647a.5.5 0 1 1 .707.708L8.5 3.207v3.927l3.4-1.963.496-1.85a.5.5 0 1 1 .966.26l-.236.882 1.12-.646a.5.5 0 0 1 .5.866l-1.12.646.883.237a.5.5 0 1 1-.26.966l-1.848-.495L9 8l3.4 1.963 1.849-.495a.5.5 0 0 1 .259.966l-.883.237 1.12.646a.5.5 0 0 1-.5.866l-1.12-.646.236.883a.5.5 0 1 1-.966.258l-.495-1.849-3.4-1.963v3.927l1.353 1.353a.5.5 0 0 1-.707.708l-.647-.647V15.5a.5.5 0 0 1-.5.5z"/></symbol>
  <symbol id="star" viewBox="0 0 16 16"><path d="M2.866 14.85c-.078.444.36.791.746.593l4.39-2.256 4.389 2.256c.386.198.824-.149.746-.592l-.83-4.73 3.522-3.356c.33-.314.16-.888-.282-.95l-4.898-.696L8.465.792a.513.513 0 0 0-.927 0L5.354 5.12l-4.898.696c-.441.062-.612.636-.283.95l3.523 3.356-.83 4.73zm4.905-2.767-3.686 1.894.694-3.957a.565.565 0 0 0-.163-.505L1.71 6.745l4.052-.576a.525.525 0 0 0 .393-.288L8 2.223l1.847 3.658a.525.525 0 0 0 .393.288l4.052.575-2.906 2.77a.565.565 0 0 0-.163.506l.694 3.957-3.686-1.894a.503.503 0 0 0-.461 0z"/></symbol>
  <symbol id="star-fill" viewBox="0 0 16 16"><path d="M3.612 15.443c-.386.198-.824-.149-.746-.592l.83-4.73L.173 6.765c-.329-.314-.158-.888.283-.95l4.898-.696L7.538.792c.197-.39.73-.39.927 0l2.184 4.327 4.898.696c.441.062.612.636.282.95l-3.522 3.356.83 4.73c.078.443-.36.79-.746.592L8 13.187l-4.389 2.256z"/></symbol>
  <symbol id="sticky" viewBox="0 0 16 16"><path d="M2.5 1A1.5 1.5 0 0 0 1 2.5v11A1.5 1.5 0 0 0 2.5 15h6.086a1.5 1.5 0 0 0 1.06-.44l4.915-4.914A1.5 1.5 0 0 0 15 8.586V2.5A1.5 1.5 0 0 0 13.5 1h-11zM2 2.5a.5.5 0 0 1 .5-.5h11a.5.5 0 0 1 .5.5V8H9.5A1.5 1.5 0 0 0 8 9.5V14H2.5a.5.5 0 0 1-.5-.5v-11zm7 11.293V9.5a.5.5 0 0 1 .5-.5h4.293L9 13.793z"/></symbol>
  <symbol id="sun" viewBox="0 0 16 16"><path d="M8 11a3 3 0 1 1 0-6 3 3 0 0 1 0 6zm0 1a4 4 0 1 0 0-8 4 4 0 0 0 0 8zM8 0a.5.5 0 0 1 .5.5v2a.5.5 0 0 1-1 0v-2A.5.5 0 0 1 8 0zm0 13a.5.5 0 0 1 .5.5v2a.5.5 0 0 1-1 0v-2A.5.5 0 0 1 8 13zm8-5a.5.5 0 0 1-.5.5h-2a.5.5 0 0 1 0-1h2a.5.5 0 0 1 .5.5zM3 8a.5.5 0 0 1-.5.5h-2a.5.5 0 0 1 0-1h2A.5.5 0 0 1 3 8zm10.657-5.657a.5.5 0 0 1 0 .707l-1.414 1.415a.5.5 0 1 1-.707-.708l1.414-1.414a.5.5 0 0 1 .707 0zm-9.193 9.193a.5.5 0 0 1 0 .707L3.05 13.657a.5.5 0 0 1-.707-.707l1.414-1.414a.5.5 0 0 1 .707 0zm9.193 2.121a.5.5 0 0 1-.707 0l-1.414-1.414a.5.5 0 0 1 .707-.707l1.414 1.414a.5.5 0 0 1 0 .707zM4.464 4.465a.5.5 0 0 1-.707 0L2.343 3.05a.5.5 0 1 1 .707-.707l1.414 1.414a.5.5 0 0 1 0 .708z"/></symbol>
  <symbol id="sunrise" viewBox="0 0 16 16"><path d="M7.646 1.146a.5.5 0 0 1 .708 0l1.5 1.5a.5.5 0 0 1-.708.708L8.5 2.707V4.5a.5.5 0 0 1-1 0V2.707l-.646.647a.5.5 0 1 1-.708-.708l1.5-1.5zM2.343 4.343a.5.5 0 0 1 .707 0l1.414 1.414a.5.5 0 0 1-.707.707L2.343 5.05a.5.5 0 0 1 0-.707zm11.314 0a.5.5 0 0 1 0 .707l-1.414 1.414a.5.5 0 1 1-.707-.707l1.414-1.414a.5.5 0 0 1 .707 0zM8 7a3 3 0 0 1 2.599 4.5H5.4A3 3 0 0 1 8 7zm3.71 4.5a4 4 0 1 0-7.418 0H.499a.5.5 0 0 0 0 1h15a.5.5 0 0 0 0-1h-3.79zM0 10a.5.5 0 0 1 .5-.5h2a.5.5 0 0 1 0 1h-2A.5.5 0 0 1 0 10zm13 0a.5.5 0 0 1 .5-.5h2a.5.5 0 0 1 0 1h-2a.5.5 0 0 1-.5-.5z"/></symbol>
  <symbol id="sunset" viewBox="0 0 16 16"><path d="M7.646 4.854a.5.5 0 0 0 .708 0l1.5-1.5a.5.5 0 0 0-.708-.708l-.646.647V1.5a.5.5 0 0 0-1 0v1.793l-.646-.647a.5.5 0 1 0-.708.708l1.5 1.5zm-5.303-.51a.5.5 0 0 1 .707 0l1.414 1.413a.5.5 0 0 1-.707.707L2.343 5.05a.5.5 0 0 1 0-.707zm11.314 0a.5.5 0 0 1 0 .706l-1.414 1.414a.5.5 0 1 1-.707-.707l1.414-1.414a.5.5 0 0 1 .707 0zM8 7a3 3 0 0 1 2.599 4.5H5.4A3 3 0 0 1 8 7zm3.71 4.5a4 4 0 1 0-7.418 0H.499a.5.5 0 0 0 0 1h15a.5.5 0 0 0 0-1h-3.79zM0 10a.5.5 0 0 1 .5-.5h2a.5.5 0 0 1 0 1h-2A.5.5 0 0 1 0 10zm13 0a.5.5 0 0 1 .5-.5h2a.5.5 0 0 1 0 1h-2a.5.5 0 0 1-.5-.5z"/></symbol>
  <symbol id="taxi-front" viewBox="0 0 16 16"><path d="M4.862 5.276 3.906 7.19a.51.51 0 0 0 .497.731c.91-.073 2.35-.17 3.597-.17 1.247 0 2.688.097 3.597.17a.51.51 0 0 0 .497-.731l-.956-1.913A.5.5 0 0 0 10.691 5H5.309a.5.5 0 0 0-.447.276ZM4 10a1 1 0 1 1-2 0 1 1 0 0 1 2 0Zm10 0a1 1 0 1 1-2 0 1 1 0 0 1 2 0Zm-9 0a1 1 0 0 1 1-1h4a1 1 0 1 1 0 2H6a1 1 0 0 1-1-1Z"/>
  <path d="M6 1a1 1 0 0 0-1 1v1h-.181A2.5 2.5 0 0 0 2.52 4.515l-.792 1.848a.807.807 0 0 1-.38.404c-.5.25-.855.715-.965 1.262L.05 9.708a2.5 2.5 0 0 0-.049.49v.413c0 .814.39 1.543 1 1.997V14.5a.5.5 0 0 0 .5.5h2a.5.5 0 0 0 .5-.5v-1.338c1.292.048 2.745.088 4 .088s2.708-.04 4-.088V14.5a.5.5 0 0 0 .5.5h2a.5.5 0 0 0 .5-.5v-1.892c.61-.454 1-1.183 1-1.997v-.413c0-.165-.016-.329-.049-.49l-.335-1.68a1.807 1.807 0 0 0-.964-1.261.807.807 0 0 1-.381-.404l-.792-1.848A2.5 2.5 0 0 0 11.181 3H11V2a1 1 0 0 0-1-1H6ZM4.819 4h6.362a1.5 1.5 0 0 1 1.379.91l.792 1.847a1.8 1.8 0 0 0 .853.904c.222.112.381.32.43.564l.336 1.679c.02.097.029.195.029.294v.413a1.48 1.48 0 0 1-1.408 1.484c-1.555.07-3.786.155-5.592.155-1.806 0-4.037-.084-5.592-.155A1.479 1.479 0 0 1 1 10.611v-.413c0-.099.01-.197.03-.294l.335-1.68a.807.807 0 0 1 .43-.563c.383-.19.685-.511.853-.904l.792-1.848A1.5 1.5 0 0 1 4.82 4Z"/></symbol>
  <symbol id="telephone" viewBox="0 0 16 16"><path d="M3.654 1.328a.678.678 0 0 0-1.015-.063L1.605 2.3c-.483.484-.661 1.169-.45 1.77a17.568 17.568 0 0 0 4.168 6.608 17.569 17.569 0 0 0 6.608 4.168c.601.211 1.286.033 1.77-.45l1.034-1.034a.678.678 0 0 0-.063-1.015l-2.307-1.794a.678.678 0 0 0-.58-.122l-2.19.547a1.745 1.745 0 0 1-1.657-.459L5.482 8.062a1.745 1.745 0 0 1-.46-1.657l.548-2.19a.678.678 0 0 0-.122-.58L3.654 1.328zM1.884.511a1.745 1.745 0 0 1 2.612.163L6.29 2.98c.329.423.445.974.315 1.494l-.547 2.19a.678.678 0 0 0 .178.643l2.457 2.457a.678.678 0 0 0 .644.178l2.189-.547a1.745 1.745 0 0 1 1.494.315l2.306 1.794c.829.645.905 1.87.163 2.611l-1.034 1.034c-.74.74-1.846 1.065-2.877.702a18.634 18.634 0 0 1-7.01-4.42 18.634 18.634 0 0 1-4.42-7.009c-.362-1.03-.037-2.137.703-2.877L1.885.511z"/></symbol>
  <symbol id="translate" viewBox="0 0 16 16"><path d="M4.545 6.714 4.11 8H3l1.862-5h1.284L8 8H6.833l-.435-1.286H4.545zm1.634-.736L5.5 3.956h-.049l-.679 2.022H6.18z"/>
  <path d="M0 2a2 2 0 0 1 2-2h7a2 2 0 0 1 2 2v3h3a2 2 0 0 1 2 2v7a2 2 0 0 1-2 2H7a2 2 0 0 1-2-2v-3H2a2 2 0 0 1-2-2V2zm2-1a1 1 0 0 0-1 1v7a1 1 0 0 0 1 1h7a1 1 0 0 0 1-1V2a1 1 0 0 0-1-1H2zm7.138 9.995c.193.301.402.583.63.846-.748.575-1.673 1.001-2.768 1.292.178.217.451.635.555.867 1.125-.359 2.08-.844 2.886-1.494.777.665 1.739 1.165 2.93 1.472.133-.254.414-.673.629-.89-1.125-.253-2.057-.694-2.82-1.284.681-.747 1.222-1.651 1.621-2.757H14V8h-3v1.047h.765c-.318.844-.74 1.546-1.272 2.13a6.066 6.066 0 0 1-.415-.492 1.988 1.988 0 0 1-.94.31z"/></symbol>
  <symbol id="trash" viewBox="0 0 16 16"><path d="M5.5 5.5A.5.5 0 0 1 6 6v6a.5.5 0 0 1-1 0V6a.5.5 0 0 1 .5-.5Zm2.5 0a.5.5 0 0 1 .5.5v6a.5.5 0 0 1-1 0V6a.5.5 0 0 1 .5-.5Zm3 .5a.5.5 0 0 0-1 0v6a.5.5 0 0 0 1 0V6Z"/>
  <path d="M14.5 3a1 1 0 0 1-1 1H13v9a2 2 0 0 1-2 2H5a2 2 0 0 1-2-2V4h-.5a1 1 0 0 1-1-1V2a1 1 0 0 1 1-1H6a1 1 0 0 1 1-1h2a1 1 0 0 1 1 1h3.5a1 1 0 0 1 1 1v1ZM4.118 4 4 4.059V13a1 1 0 0 0 1 1h6a1 1 0 0 0 1-1V4.059L11.882 4H4.118ZM2.5 3h11V2h-11v1Z"/></symbol>
  <symbol id="universal-access" viewBox="0 0 16 16"><path d="M9.5 1.5a1.5 1.5 0 1 1-3 0 1.5 1.5 0 0 1 3 0ZM6 5.5l-4.535-.442A.531.531 0 0 1 1.531 4H14.47a.531.531 0 0 1 .066 1.058L10 5.5V9l.452 6.42a.535.535 0 0 1-1.053.174L8.243 9.97c-.064-.252-.422-.252-.486 0l-1.156 5.624a.535.535 0 0 1-1.053-.174L6 9V5.5Z"/></symbol>
  <symbol id="volume-mute" viewBox="0 0 16 16"><path d="M6.717 3.55A.5.5 0 0 1 7 4v8a.5.5 0 0 1-.812.39L3.825 10.5H1.5A.5.5 0 0 1 1 10V6a.5.5 0 0 1 .5-.5h2.325l2.363-1.89a.5.5 0 0 1 .529-.06zM6 5.04 4.312 6.39A.5.5 0 0 1 4 6.5H2v3h2a.5.5 0 0 1 .312.11L6 10.96V5.04zm7.854.606a.5.5 0 0 1 0 .708L12.207 8l1.647 1.646a.5.5 0 0 1-.708.708L11.5 8.707l-1.646 1.647a.5.5 0 0 1-.708-.708L10.793 8 9.146 6.354a.5.5 0 1 1 .708-.708L11.5 7.293l1.646-1.647a.5.5 0 0 1 .708 0z"/></symbol>
  <symbol id="x-circle" viewBox="0 0 16 16"><path d="M8 15A7 7 0 1 1 8 1a7 7 0 0 1 0 14zm0 1A8 8 0 1 0 8 0a8 8 0 0 0 0 16z"/>
  <path d="M4.646 4.646a.5.5 0 0 1 .708 0L8 7.293l2.646-2.647a.5.5 0 0 1 .708.708L8.707 8l2.647 2.646a.5.5 0 0 1-.708.708L8 8.707l-2.646 2.647a.5.5 0 0 1-.708-.708L7.293 8 4.646 5.354a.5.5 0 0 1 0-.708z"/></symbol>
  <symbol id="zoom-in" viewBox="0 0 16 16"><path fill-rule="evenodd" d="M6.5 12a5.5 5.5 0 1 0 0-11 5.5 5.5 0 0 0 0 11zM13 6.5a6.5 6.5 0 1 1-13 0 6.5 6.5 0 0 1 13 0z"/>
  <path d="M10.344 11.742c.03.04.062.078.098.115l3.85 3.85a1 1 0 0 0 1.415-1.414l-3.85-3.85a1.007 1.007 0 0 0-.115-.1 6.538 6.538 0 0 1-1.398 1.4z"/>
  <path fill-rule="evenodd" d="M6.5 3a.5.5 0 0 1 .5.5V6h2.5a.5.5 0 0 1 0 1H7v2.5a.5.5 0 0 1-1 0V7H3.5a.5.5 0 0 1 0-1H6V3.5a.5.5 0 0 1 .5-.5z"/></symbol>

  <symbol id="brain" viewBox="0 0 16 16"><path d="M2 6a6 6 0 1 1 10.174 4.31c-.203.196-.359.4-.453.619l-.762 1.769A.5.5 0 0 1 10.5 13a.5.5 0 0 1 0 1 .5.5 0 0 1 0 1l-.224.447a1 1 0 0 1-.894.553H6.618a1 1 0 0 1-.894-.553L5.5 15a.5.5 0 0 1 0-1 .5.5 0 0 1 0-1 .5.5 0 0 1-.46-.302l-.761-1.77a1.964 1.964 0 0 0-.453-.618A5.984 5.984 0 0 1 2 6zm6-5a5 5 0 0 0-3.479 8.592c.263.254.514.564.676.941L5.83 12h4.342l.632-1.467c.162-.377.413-.687.676-.941A5 5 0 0 0 8 1z"/></symbol>
  <symbol id="chair" viewBox="0 0 16 16"><path d="M8.354 1.146a.5.5 0 0 0-.708 0l-6 6A.5.5 0 0 0 1.5 7.5v7a.5.5 0 0 0 .5.5h4.5a.5.5 0 0 0 .5-.5v-4h2v4a.5.5 0 0 0 .5.5H14a.5.5 0 0 0 .5-.5v-7a.5.5 0 0 0-.146-.354L13 5.793V2.5a.5.5 0 0 0-.5-.5h-1a.5.5 0 0 0-.5.5v1.293L8.354 1.146ZM2.5 14V7.707l5.5-5.5 5.5 5.5V14H10v-4a.5.5 0 0 0-.5-.5h-3a.5.5 0 0 0-.5.5v4H2.5Z"/></symbol>
  <symbol id="hotel" viewBox="0 0 16 16"><path d="M4 2.5a.5.5 0 0 1 .5-.5h1a.5.5 0 0 1 .5.5v1a.5.5 0 0 1-.5.5h-1a.5.5 0 0 1-.5-.5v-1Zm3 0a.5.5 0 0 1 .5-.5h1a.5.5 0 0 1 .5.5v1a.5.5 0 0 1-.5.5h-1a.5.5 0 0 1-.5-.5v-1Zm3.5-.5a.5.5 0 0 0-.5.5v1a.5.5 0 0 0 .5.5h1a.5.5 0 0 0 .5-.5v-1a.5.5 0 0 0-.5-.5h-1ZM4 5.5a.5.5 0 0 1 .5-.5h1a.5.5 0 0 1 .5.5v1a.5.5 0 0 1-.5.5h-1a.5.5 0 0 1-.5-.5v-1ZM7.5 5a.5.5 0 0 0-.5.5v1a.5.5 0 0 0 .5.5h1a.5.5 0 0 0 .5-.5v-1a.5.5 0 0 0-.5-.5h-1Zm2.5.5a.5.5 0 0 1 .5-.5h1a.5.5 0 0 1 .5.5v1a.5.5 0 0 1-.5.5h-1a.5.5 0 0 1-.5-.5v-1ZM4.5 8a.5.5 0 0 0-.5.5v1a.5.5 0 0 0 .5.5h1a.5.5 0 0 0 .5-.5v-1a.5.5 0 0 0-.5-.5h-1Zm2.5.5a.5.5 0 0 1 .5-.5h1a.5.5 0 0 1 .5.5v1a.5.5 0 0 1-.5.5h-1a.5.5 0 0 1-.5-.5v-1Zm3.5-.5a.5.5 0 0 0-.5.5v1a.5.5 0 0 0 .5.5h1a.5.5 0 0 0 .5-.5v-1a.5.5 0 0 0-.5-.5h-1Z"/>
  <path d="M2 1a1 1 0 0 1 1-1h10a1 1 0 0 1 1 1v14a1 1 0 0 1-1 1H3a1 1 0 0 1-1-1V1Zm11 0H3v14h3v-2.5a.5.5 0 0 1 .5-.5h3a.5.5 0 0 1 .5.5V15h3V1Z"/></symbol>
  <symbol id="mountain" viewBox="0 0 16 16"><path fill-rule="evenodd" d="M7.022 1.566a1.13 1.13 0 0 1 1.96 0l6.857 11.667c.457.778-.092 1.767-.98 1.767H1.144c-.889 0-1.437-.99-.98-1.767L7.022 1.566z"/></symbol>
  <symbol id="shoe" viewBox="0 0 16 16"><path d="M8 1a2.5 2.5 0 0 1 2.5 2.5V4h-5v-.5A2.5 2.5 0 0 1 8 1zm3.5 3v-.5a3.5 3.5 0 1 0-7 0V4H1v10a2 2 0 0 0 2 2h10a2 2 0 0 0 2-2V4h-3.5zM2 5h12v9a1 1 0 0 1-1 1H3a1 1 0 0 1-1-1V5z"/></symbol>
</svg>
